<svg xmlns="http://www.w3.org/2000/svg" viewBox="0 0 500 500"><g id="freepik--background-complete--inject-151"><rect x="43.82" y="49.18" width="125.24" height="161.75" style="fill:#ebebeb"></rect><path d="M169.06,49.18a2.85,2.85,0,0,1-.34.43l-1.08,1.21-4.23,4.64,0,0h-.08c-10.88.11-32.28.18-56.84.18s-46-.07-56.84-.18h-.08l-.05,0-4.23-4.64-1.08-1.21a2.85,2.85,0,0,1-.34-.43,2.33,2.33,0,0,1,.41.37c.3.29.67.67,1.14,1.15l4.36,4.52-.13-.06c10.88-.11,32.28-.18,56.84-.18s46,.07,56.84.18l-.12.06q2.79-2.91,4.35-4.52l1.14-1.15A2.33,2.33,0,0,1,169.06,49.18Z" style="fill:#e0e0e0"></path><path d="M43.82,210.93a2.85,2.85,0,0,1,.34-.43l1.08-1.22,4.23-4.63.05-.06h.08c10.89-.11,32.28-.19,56.84-.19s46,.08,56.84.19h.08l0,.06,4.23,4.63,1.08,1.22a2.85,2.85,0,0,1,.34.43,3,3,0,0,1-.41-.37l-1.14-1.15c-1-1.07-2.49-2.59-4.35-4.52l.12.05c-10.88.11-32.28.19-56.84.19s-45.95-.08-56.84-.19l.13-.05-4.36,4.52-1.14,1.15A3,3,0,0,1,43.82,210.93Z" style="fill:#e0e0e0"></path><rect x="49.6" y="55.34" width="113.69" height="149.43" style="fill:#fff"></rect><path d="M67.39,161.07c3.38-3.22,8.37-4.13,13-4s9.29,1.11,14,1c7.47-.1,14.91-2.86,22.27-1.58,2.35.4,4.74,1.22,7.07.72,2-.43,3.76-1.83,5.77-2.43,5.18-1.54,11,2.51,16,.4v33.35H67.39Z" style="fill:#ebebeb"></path><path d="M69,162.41c-.2,0-.36-19.76-.36-44.13s.16-44.13.36-44.13.36,19.76.36,44.13S69.16,162.41,69,162.41Z" style="fill:#e0e0e0"></path><path d="M72.52,162.41c-.2,0-.37-19.76-.37-44.13s.17-44.13.37-44.13.36,19.76.36,44.13S72.72,162.41,72.52,162.41Z" style="fill:#e0e0e0"></path><path d="M76.07,162.41c-.2,0-.36-19.76-.36-44.13s.16-44.13.36-44.13.36,19.76.36,44.13S76.27,162.41,76.07,162.41Z" style="fill:#e0e0e0"></path><path d="M79.63,162.41c-.2,0-.36-19.76-.36-44.13s.16-44.13.36-44.13S80,93.91,80,118.28,79.83,162.41,79.63,162.41Z" style="fill:#e0e0e0"></path><path d="M83.18,162.41c-.2,0-.36-19.76-.36-44.13s.16-44.13.36-44.13.37,19.76.37,44.13S83.38,162.41,83.18,162.41Z" style="fill:#e0e0e0"></path><path d="M86.74,162.41c-.2,0-.36-19.76-.36-44.13s.16-44.13.36-44.13.36,19.76.36,44.13S86.94,162.41,86.74,162.41Z" style="fill:#e0e0e0"></path><path d="M90.3,162.41c-.2,0-.37-19.76-.37-44.13s.17-44.13.37-44.13.36,19.76.36,44.13S90.5,162.41,90.3,162.41Z" style="fill:#e0e0e0"></path><path d="M93.85,162.41c-.2,0-.36-19.76-.36-44.13s.16-44.13.36-44.13.37,19.76.37,44.13S94.05,162.41,93.85,162.41Z" style="fill:#e0e0e0"></path><path d="M97.41,162.41c-.2,0-.36-19.76-.36-44.13s.16-44.13.36-44.13.36,19.76.36,44.13S97.61,162.41,97.41,162.41Z" style="fill:#e0e0e0"></path><path d="M101,162.41c-.21,0-.37-19.76-.37-44.13s.16-44.13.37-44.13.36,19.76.36,44.13S101.17,162.41,101,162.41Z" style="fill:#e0e0e0"></path><path d="M104.52,162.41c-.2,0-.36-19.76-.36-44.13s.16-44.13.36-44.13.36,19.76.36,44.13S104.72,162.41,104.52,162.41Z" style="fill:#e0e0e0"></path><path d="M108.08,162.41c-.2,0-.37-19.76-.37-44.13s.17-44.13.37-44.13.36,19.76.36,44.13S108.28,162.41,108.08,162.41Z" style="fill:#e0e0e0"></path><path d="M111.63,162.41c-.2,0-.36-19.76-.36-44.13s.16-44.13.36-44.13.37,19.76.37,44.13S111.83,162.41,111.63,162.41Z" style="fill:#e0e0e0"></path><path d="M115.19,162.41c-.2,0-.36-19.76-.36-44.13s.16-44.13.36-44.13.36,19.76.36,44.13S115.39,162.41,115.19,162.41Z" style="fill:#e0e0e0"></path><path d="M118.75,162.41c-.2,0-.37-19.76-.37-44.13s.17-44.13.37-44.13.36,19.76.36,44.13S119,162.41,118.75,162.41Z" style="fill:#e0e0e0"></path><path d="M122.3,162.41c-.2,0-.36-19.76-.36-44.13s.16-44.13.36-44.13.36,19.76.36,44.13S122.5,162.41,122.3,162.41Z" style="fill:#e0e0e0"></path><path d="M125.86,162.41c-.2,0-.36-19.76-.36-44.13s.16-44.13.36-44.13.36,19.76.36,44.13S126.06,162.41,125.86,162.41Z" style="fill:#e0e0e0"></path><path d="M129.41,162.41c-.2,0-.36-19.76-.36-44.13s.16-44.13.36-44.13.37,19.76.37,44.13S129.61,162.41,129.41,162.41Z" style="fill:#e0e0e0"></path><path d="M133,162.41c-.2,0-.36-19.76-.36-44.13s.16-44.13.36-44.13.36,19.76.36,44.13S133.17,162.41,133,162.41Z" style="fill:#e0e0e0"></path><path d="M136.53,162.41c-.2,0-.37-19.76-.37-44.13s.17-44.13.37-44.13.36,19.76.36,44.13S136.73,162.41,136.53,162.41Z" style="fill:#e0e0e0"></path><path d="M140.08,162.41c-.2,0-.36-19.76-.36-44.13s.16-44.13.36-44.13.37,19.76.37,44.13S140.28,162.41,140.08,162.41Z" style="fill:#e0e0e0"></path><path d="M143.64,162.41c-.2,0-.36-19.76-.36-44.13s.16-44.13.36-44.13.36,19.76.36,44.13S143.84,162.41,143.64,162.41Z" style="fill:#e0e0e0"></path><rect x="343.96" y="123.12" width="115.4" height="11.11" style="fill:#ebebeb"></rect><path d="M394.89,60s0-.06.06-.15.14-.26.23-.43a18.37,18.37,0,0,1,1-1.57,16.93,16.93,0,0,1,4.95-4.68,12.28,12.28,0,0,1,4.45-1.64,11.09,11.09,0,0,1,5.41.57,8.7,8.7,0,0,1,4.62,3.79c1.07,1.85,1.41,4,2,6.11a11.14,11.14,0,0,0,1.29,2.92,8.68,8.68,0,0,0,2.2,2.16c.82.61,1.69,1.16,2.47,1.8a10.59,10.59,0,0,1,2,2.18,13.45,13.45,0,0,1,2.07,5,18,18,0,0,1,.27,4.73,35.31,35.31,0,0,1-1.21,6.72c-.2.78-.38,1.39-.5,1.79a5.09,5.09,0,0,1-.2.62,4.43,4.43,0,0,1,.13-.64c.11-.44.25-1,.43-1.8a39.21,39.21,0,0,0,1.09-6.71,18.4,18.4,0,0,0-.32-4.65,13.14,13.14,0,0,0-2-4.9,10.45,10.45,0,0,0-1.95-2.1c-.77-.62-1.63-1.16-2.47-1.78a9.06,9.06,0,0,1-2.29-2.25,11.37,11.37,0,0,1-1.34-3c-.63-2.12-1-4.26-2-6a8.43,8.43,0,0,0-4.42-3.64,10.78,10.78,0,0,0-5.24-.59,11.89,11.89,0,0,0-4.36,1.56,17.38,17.38,0,0,0-5,4.54c-.48.64-.82,1.16-1.05,1.52A6.44,6.44,0,0,1,394.89,60Z" style="fill:#e0e0e0"></path><path d="M422.11,67.61c-.58-.53-.85-.16-1.62,0a4.85,4.85,0,0,0-2.09,1,8.78,8.78,0,0,0-2.84,9.2,6.85,6.85,0,0,0,6.29-10.28" style="fill:#e0e0e0"></path><path d="M398.56,56.89c-.29-.73-.7-.51-1.46-.72a4.8,4.8,0,0,0-2.32,0,8.76,8.76,0,0,0-6.52,7.08,6.83,6.83,0,0,0,10.09-6.57" style="fill:#e0e0e0"></path><path d="M427.29,82.12a7.89,7.89,0,0,0-12.41.6,9.73,9.73,0,0,0,6.44,2.54,10,10,0,0,0,6.48-2.62" style="fill:#e0e0e0"></path><path d="M425.36,71.28a8,8,0,0,0,8.08-9.54,7.17,7.17,0,0,0-8.34,9.47" style="fill:#e0e0e0"></path><path d="M417.07,58.55a8,8,0,0,0,10.8-6.32,7.18,7.18,0,0,0-11,6.16" style="fill:#e0e0e0"></path><path d="M414.29,54.39a8,8,0,0,0-10.79,6.32,7.18,7.18,0,0,0,11-6.16" style="fill:#e0e0e0"></path><path d="M411,52.15a8,8,0,0,0,4.26-11.76,7.18,7.18,0,0,0-4.53,11.78" style="fill:#e0e0e0"></path><path d="M402.5,52.56A8,8,0,0,0,396,41.89a7.18,7.18,0,0,0,6.38,10.89" style="fill:#e0e0e0"></path><polyline points="436.71 111.17 441.23 81.55 406.58 81.99 410 110.78" style="fill:#ebebeb"></polyline><path d="M421.76,76.36a5.89,5.89,0,0,1-5.75.49,6.24,6.24,0,0,1-3.15-5,7.1,7.1,0,0,1,5.74-.3,7,7,0,0,1,3.82,4.28" style="fill:#f5f5f5"></path><path d="M405.92,82.48a5.92,5.92,0,0,1-5.75.48A6.22,6.22,0,0,1,397,78a7.06,7.06,0,0,1,5.74-.29A7,7,0,0,1,406.58,82" style="fill:#f5f5f5"></path><path d="M414.81,68.83a5.92,5.92,0,0,1-4.54,3.56A6.21,6.21,0,0,1,404.91,70,6.65,6.65,0,0,1,415.08,68" style="fill:#f5f5f5"></path><path d="M409,75.9a5.92,5.92,0,0,1,5.17,2.56,6.24,6.24,0,0,1,.12,5.88,7.1,7.1,0,0,1-5.07-2.72A7,7,0,0,1,408.2,76" style="fill:#f5f5f5"></path><path d="M403.44,87.07a5.9,5.9,0,0,1-.13,5.77A6.24,6.24,0,0,1,398,95.43a7,7,0,0,1,.32-5.74c.91-1.66,2.55-2.47,4.61-2.94" style="fill:#f5f5f5"></path><path d="M394.23,88.38a4.44,4.44,0,0,1,1.37-.87,6,6,0,0,1,1.88-.33,22.4,22.4,0,0,1,2.56.15,7.4,7.4,0,0,0,3.15-.27,4.79,4.79,0,0,0,2.6-2.51,14.52,14.52,0,0,0,1.12-3.83,11.21,11.21,0,0,1,1.33-3.94,14.28,14.28,0,0,1,2.93-3A13.73,13.73,0,0,0,414,71a9.33,9.33,0,0,0,1.39-6.52,9,9,0,0,0-1.7-4.2,6.76,6.76,0,0,0-.83-.91,1.53,1.53,0,0,0-.33-.28,2.06,2.06,0,0,0,.28.33,8.35,8.35,0,0,1,.76.95,9.37,9.37,0,0,1,1.56,4.14,9.18,9.18,0,0,1-1.42,6.29,13.81,13.81,0,0,1-2.75,2.76,13.89,13.89,0,0,0-3,3.06,11.06,11.06,0,0,0-1.38,4.06,14.25,14.25,0,0,1-1.07,3.75,4.53,4.53,0,0,1-2.4,2.38,7.38,7.38,0,0,1-3,.3,21.7,21.7,0,0,0-2.59-.1,6.11,6.11,0,0,0-1.92.4,3.25,3.25,0,0,0-1,.68,1.45,1.45,0,0,0-.22.24Z" style="fill:#f5f5f5"></path><path d="M394.23,88.38a4.44,4.44,0,0,1,1.37-.87,6,6,0,0,1,1.88-.33,22.4,22.4,0,0,1,2.56.15,7.4,7.4,0,0,0,3.15-.27,4.79,4.79,0,0,0,2.6-2.51,14.52,14.52,0,0,0,1.12-3.83,11.21,11.21,0,0,1,1.33-3.94,14.28,14.28,0,0,1,2.93-3A13.73,13.73,0,0,0,414,71a9.33,9.33,0,0,0,1.39-6.52,9,9,0,0,0-1.7-4.2,6.76,6.76,0,0,0-.83-.91,1.53,1.53,0,0,0-.33-.28,2.06,2.06,0,0,0,.28.33,8.35,8.35,0,0,1,.76.95,9.37,9.37,0,0,1,1.56,4.14,9.18,9.18,0,0,1-1.42,6.29,13.81,13.81,0,0,1-2.75,2.76,13.89,13.89,0,0,0-3,3.06,11.06,11.06,0,0,0-1.38,4.06,14.25,14.25,0,0,1-1.07,3.75,4.53,4.53,0,0,1-2.4,2.38,7.38,7.38,0,0,1-3,.3,21.7,21.7,0,0,0-2.59-.1,6.11,6.11,0,0,0-1.92.4,3.25,3.25,0,0,0-1,.68,1.45,1.45,0,0,0-.22.24Z" style="fill:#f5f5f5"></path><path d="M460.38,91.29a8.76,8.76,0,0,1,11.87-8.63,14.62,14.62,0,0,1-11.55,8.52" style="fill:#f5f5f5"></path><path d="M462.67,92.5c1.7,1.86,1.59,4.85.38,7.06a15.89,15.89,0,0,1-5.39,5.17,11.39,11.39,0,0,1,4.9-12.91" style="fill:#f5f5f5"></path><path d="M454.46,83.77a10.1,10.1,0,0,1-11.49,9,13.79,13.79,0,0,1,3.85-7.31c2.11-1.85,5.42-2.54,7.75-1" style="fill:#f5f5f5"></path><path d="M454.52,81c.42-2.48,2.87-4.27,5.37-4.51a10.34,10.34,0,0,1,7,2.35,9.11,9.11,0,0,1-5.95,3.07,9.26,9.26,0,0,1-6.44-1.84" style="fill:#f5f5f5"></path><path d="M467.43,102.08c2.38,2,3,5.65,2,8.62a14.32,14.32,0,0,1-5.91,7.07,18.78,18.78,0,0,1-1.1-9.16,9.63,9.63,0,0,1,5.22-7.27" style="fill:#f5f5f5"></path><path d="M454.9,74a7.3,7.3,0,0,0-11.58-.68,6.33,6.33,0,0,0,11.41.29" style="fill:#f5f5f5"></path><path d="M452,66.89a9.5,9.5,0,0,0,12.12-7.43,21.55,21.55,0,0,0-5.73.08,9.31,9.31,0,0,0-5.07,2.5A5,5,0,0,0,452,66.89" style="fill:#f5f5f5"></path><path d="M446.49,65a7.77,7.77,0,0,0,.05-12,16.3,16.3,0,0,0-3.4,7.24,6.09,6.09,0,0,0,0,3,2.75,2.75,0,0,0,2.1,2" style="fill:#f5f5f5"></path><path d="M437,82.46v-.2c0-.15,0-.33,0-.57,0-.5-.08-1.24-.09-2.19a19.47,19.47,0,0,1,1.28-7.87,12,12,0,0,1,3.17-4.46,8.48,8.48,0,0,1,5.76-2.12,7.09,7.09,0,0,1,3.25.82,6.49,6.49,0,0,1,2.52,2.39,13,13,0,0,1,1.45,7.24,51.37,51.37,0,0,0-.17,7.62,11.59,11.59,0,0,0,.95,3.53,7.32,7.32,0,0,0,2.13,2.8,10.59,10.59,0,0,0,3,1.52,14.91,14.91,0,0,1,2.8,1.27,10.17,10.17,0,0,1,3.67,4,9.63,9.63,0,0,1,1.06,4.38,10.39,10.39,0,0,1-.55,3.39,13.29,13.29,0,0,1-1.31,2.63s.05,0,.12-.15.2-.25.34-.46a9.29,9.29,0,0,0,1-2,10.22,10.22,0,0,0,.62-3.44,9.74,9.74,0,0,0-1-4.5A10.46,10.46,0,0,0,463.13,92c-1.71-1.14-4-1.42-5.72-2.79a8.93,8.93,0,0,1-2.92-6.1,50.83,50.83,0,0,1,.18-7.56,13.24,13.24,0,0,0-1.52-7.45,6.84,6.84,0,0,0-2.66-2.52,7.41,7.41,0,0,0-3.41-.84,8.7,8.7,0,0,0-6,2.23,12.13,12.13,0,0,0-3.21,4.59A16.24,16.24,0,0,0,436.81,76a24,24,0,0,0-.1,3.49c0,.95.11,1.69.17,2.19,0,.23.05.42.07.57S437,82.46,437,82.46Z" style="fill:#f5f5f5"></path><path d="M386.53,76.27a7.44,7.44,0,0,1-.52-2.54,6.25,6.25,0,0,1,.68-2.93,6.24,6.24,0,0,1,5.05-3.33,7,7,0,0,1,2.49.29c1.7.44,3.38,1.41,5.39,1.81a6.36,6.36,0,0,0,3.12-.08,4.67,4.67,0,0,0,2.54-2c1.21-1.88,1.55-4.23,3-6A5.93,5.93,0,0,1,411,59.71a7.77,7.77,0,0,1,3.2-.33,8.22,8.22,0,0,1,5.32,2.77A12.41,12.41,0,0,1,422.19,67a14.68,14.68,0,0,1,.59,4.84,52.7,52.7,0,0,1-.9,7.08c-.14.8-.25,1.44-.33,1.91,0,.21-.05.37-.07.5a1.23,1.23,0,0,0,0,.18s0-.06.05-.17.07-.29.11-.49c.1-.47.24-1.1.41-1.91a50.32,50.32,0,0,0,1-7.09,15,15,0,0,0-.56-4.94,12.71,12.71,0,0,0-2.68-5,9.88,9.88,0,0,0-2.43-2,8.11,8.11,0,0,0-3.11-.95,8,8,0,0,0-3.35.33,6.32,6.32,0,0,0-2.91,1.9c-1.55,1.86-1.88,4.23-3,6a4.3,4.3,0,0,1-2.34,1.89,6,6,0,0,1-2.95.08c-1.93-.37-3.62-1.32-5.37-1.77a7.24,7.24,0,0,0-2.59-.28,6.44,6.44,0,0,0-2.32.65,6.29,6.29,0,0,0-2.9,2.87,6.37,6.37,0,0,0-.63,3,5.94,5.94,0,0,0,.37,1.92A3.6,3.6,0,0,0,386.53,76.27Z" style="fill:#f5f5f5"></path><path d="M406.8,63.69a6.75,6.75,0,0,1-6.18.41,6.22,6.22,0,0,1-3.15-5,6.64,6.64,0,0,1,9.56,4" style="fill:#f5f5f5"></path><path d="M400.23,69.65a6.75,6.75,0,0,1-2.87,5.49,6.22,6.22,0,0,1-5.88.1,6.63,6.63,0,0,1,8.37-6.09" style="fill:#f5f5f5"></path><path d="M388.83,68.33a6.76,6.76,0,0,1-6.19-.25A6.27,6.27,0,0,1,380,62.8a6.65,6.65,0,0,1,9.08,5" style="fill:#f5f5f5"></path><path d="M416.37,59.75a7,7,0,0,0,2.45-5.84A6.2,6.2,0,0,0,415,49.44a7.06,7.06,0,0,0-2,5.4,7,7,0,0,0,3,4.91" style="fill:#f5f5f5"></path><path d="M460.87,51.59a.66.66,0,0,0-.07-.15l-.23-.43c-.21-.37-.54-.91-1-1.57a17,17,0,0,0-5-4.68,12.28,12.28,0,0,0-4.45-1.64,11.09,11.09,0,0,0-5.41.57,8.78,8.78,0,0,0-4.62,3.79c-1.06,1.85-1.41,4-2,6.11a11,11,0,0,1-1.29,2.92,8.85,8.85,0,0,1-2.2,2.16c-.82.61-1.69,1.16-2.47,1.8a10.61,10.61,0,0,0-2,2.18,13.29,13.29,0,0,0-2.06,5,17.66,17.66,0,0,0-.28,4.73A37,37,0,0,0,429,79.14c.21.78.38,1.38.5,1.79a5.09,5.09,0,0,0,.2.62,4.15,4.15,0,0,0-.13-.64c-.1-.44-.25-1-.43-1.8a38.56,38.56,0,0,1-1.08-6.71,17.92,17.92,0,0,1,.31-4.65,13.14,13.14,0,0,1,2-4.9,10.22,10.22,0,0,1,2-2.1c.76-.62,1.62-1.16,2.46-1.78a9.23,9.23,0,0,0,2.29-2.25,11.37,11.37,0,0,0,1.34-3c.63-2.12,1-4.27,2-6A8.5,8.5,0,0,1,444.87,44a10.77,10.77,0,0,1,5.24-.58A11.89,11.89,0,0,1,454.47,45a17.24,17.24,0,0,1,5,4.54c.48.64.82,1.16,1.05,1.52A3.66,3.66,0,0,0,460.87,51.59Z" style="fill:#f5f5f5"></path><path d="M433.64,59.22c.58-.53.86-.16,1.63,0a4.81,4.81,0,0,1,2.08,1,8.78,8.78,0,0,1,2.84,9.2,6.84,6.84,0,0,1-6.28-10.28" style="fill:#f5f5f5"></path><path d="M457.19,48.5c.29-.73.7-.51,1.46-.72a4.8,4.8,0,0,1,2.32,0,8.74,8.74,0,0,1,6.52,7.08,6.85,6.85,0,0,1-10.09-6.58" style="fill:#f5f5f5"></path><path d="M428.46,73.73a7.89,7.89,0,0,1,12.41.6,9.78,9.78,0,0,1-6.44,2.54A10,10,0,0,1,428,74.25" style="fill:#f5f5f5"></path><path d="M430.39,62.89a8,8,0,0,1-8.08-9.54,7.18,7.18,0,0,1,8.35,9.46" style="fill:#f5f5f5"></path><path d="M438.68,50.16a8,8,0,0,1-10.8-6.32,7.18,7.18,0,0,1,11,6.16" style="fill:#f5f5f5"></path><path d="M441.46,46a8,8,0,0,1,10.79,6.32,7.18,7.18,0,0,1-11-6.16" style="fill:#f5f5f5"></path><path d="M444.77,43.76A8,8,0,0,1,440.51,32,7.18,7.18,0,0,1,445,43.78" style="fill:#f5f5f5"></path><path d="M453.26,44.17a8,8,0,0,1,6.53-10.67,7.18,7.18,0,0,1-6.38,10.89" style="fill:#f5f5f5"></path><polygon points="441.67 107.74 439.02 111.17 406.41 111.17 404.19 107.74 441.67 107.74" style="fill:#ebebeb"></polygon><path d="M408.57,94.23s.06.1.2.27a7.91,7.91,0,0,0,.67.69,11.91,11.91,0,0,0,2.91,2,13,13,0,0,0,5.09,1.3,12,12,0,0,0,3.12-.26,18.39,18.39,0,0,0,3.17-1.05c2.1-.9,4-1.92,5.88-2.51a10.21,10.21,0,0,1,5.07-.49,6.53,6.53,0,0,1,3.11,1.45c.62.54.86,1,.89.92a1.54,1.54,0,0,0-.16-.29,4.78,4.78,0,0,0-.63-.74,6.41,6.41,0,0,0-3.16-1.6,10.16,10.16,0,0,0-5.23.42c-1.9.59-3.84,1.61-5.91,2.49a18.32,18.32,0,0,1-3.11,1,12.22,12.22,0,0,1-3,.28,13,13,0,0,1-5-1.2A15.44,15.44,0,0,1,408.57,94.23Z" style="fill:#fafafa"></path><path d="M408.25,91.68s.06.1.22.26.39.38.71.65a13.81,13.81,0,0,0,8.15,3.09,13.92,13.92,0,0,0,3.12-.21,20.86,20.86,0,0,0,3.23-.91c2.15-.78,4.12-1.68,6-2.2a11.86,11.86,0,0,1,5.12-.47A7.73,7.73,0,0,1,438,93.13c.67.47,1,.83,1,.81s-.06-.1-.21-.27a4.83,4.83,0,0,0-.71-.66,7.26,7.26,0,0,0-3.27-1.38,12,12,0,0,0-5.25.39c-1.93.52-3.92,1.42-6.05,2.19a21.61,21.61,0,0,1-3.17.9,13.82,13.82,0,0,1-3,.23,14.64,14.64,0,0,1-5-1.12A17.56,17.56,0,0,1,408.25,91.68Z" style="fill:#fafafa"></path><rect x="390.4" y="78.41" width="6.53" height="44.71" style="fill:#ebebeb"></rect><path d="M396.13,84.5a14.14,14.14,0,0,1-5.6,0,14.14,14.14,0,0,1,5.6,0Z" style="fill:#fafafa"></path><path d="M396.25,83.53a14.14,14.14,0,0,1-5.6,0,14.14,14.14,0,0,1,5.6,0Z" style="fill:#fafafa"></path><path d="M396.13,119.66a14.14,14.14,0,0,1-5.6,0,14.14,14.14,0,0,1,5.6,0Z" style="fill:#fafafa"></path><path d="M396.25,118.69a14.14,14.14,0,0,1-5.6,0,14.14,14.14,0,0,1,5.6,0Z" style="fill:#fafafa"></path><path d="M393.21,112.85c-.16,0-.28-5.12-.28-11.44s.12-11.43.28-11.43.28,5.11.28,11.43S393.36,112.85,393.21,112.85Z" style="fill:#fafafa"></path><rect x="358.1" y="78.27" width="11.95" height="44.71" style="fill:#ebebeb"></rect><path d="M360.9,123.55s-.06-.07-.14-.24-.2-.41-.34-.74a13,13,0,0,1-.87-3,7.9,7.9,0,0,1,.7-4.91,6.53,6.53,0,0,1,2.12-2.34,4.86,4.86,0,0,1,3.44-.81,3.59,3.59,0,0,1,1.78.82,2.33,2.33,0,0,1,.85,1.88,2.7,2.7,0,0,1-1,1.9,3.67,3.67,0,0,1-2,.86,5.41,5.41,0,0,1-4.23-1.54,6.81,6.81,0,0,1-2.1-4.29,11.39,11.39,0,0,1,.62-5,9.2,9.2,0,0,1,2.93-4.36,4.73,4.73,0,0,1,2.58-1,3.32,3.32,0,0,1,2.68,1,2.17,2.17,0,0,1,.61,1.4,2.51,2.51,0,0,1-.41,1.46,3.86,3.86,0,0,1-2.41,1.64,5.62,5.62,0,0,1-5.26-1.76,8.76,8.76,0,0,1-2.05-5,12.38,12.38,0,0,1,.52-5.22,7.18,7.18,0,0,1,3.08-4,5.28,5.28,0,0,1,4.75-.5,2.51,2.51,0,0,1,1.54,1.83,2.89,2.89,0,0,1-.54,2.25,3.73,3.73,0,0,1-4,1.06,7,7,0,0,1-3.17-2.25,10.12,10.12,0,0,1-2.38-6.13,9.82,9.82,0,0,1,1.1-4.86,9.59,9.59,0,0,1,1.88-2.53,6.6,6.6,0,0,1,.62-.54l.23-.16a11.59,11.59,0,0,0-2.53,3.33,9.61,9.61,0,0,0-1,4.74,9.87,9.87,0,0,0,2.37,5.89,6.66,6.66,0,0,0,3,2.1,3.3,3.3,0,0,0,3.52-.93,2.38,2.38,0,0,0,.45-1.88,2,2,0,0,0-1.27-1.47,4.82,4.82,0,0,0-4.28.49,6.74,6.74,0,0,0-2.85,3.7,11.91,11.91,0,0,0-.47,5,8.31,8.31,0,0,0,1.91,4.71,5.08,5.08,0,0,0,4.73,1.59,3.33,3.33,0,0,0,2.06-1.39,1.72,1.72,0,0,0-.14-2.18,2.77,2.77,0,0,0-2.24-.78,4.25,4.25,0,0,0-2.28.9,8.71,8.71,0,0,0-2.75,4.09,10.86,10.86,0,0,0-.61,4.75,6.25,6.25,0,0,0,1.92,4,4.94,4.94,0,0,0,3.84,1.44,2.85,2.85,0,0,0,2.68-2.32,1.92,1.92,0,0,0-.7-1.55,3.22,3.22,0,0,0-1.57-.74,4.53,4.53,0,0,0-3.18.72,6.12,6.12,0,0,0-2,2.19,7.65,7.65,0,0,0-.76,4.73,14.51,14.51,0,0,0,.75,3C360.77,123.2,360.92,123.54,360.9,123.55Z" style="fill:#fafafa"></path><rect x="413.32" y="94.79" width="11.95" height="44.71" transform="translate(302.15 536.44) rotate(-90)" style="fill:#e0e0e0"></rect><path d="M441.15,120.32a1.72,1.72,0,0,1-.24.14c-.16.08-.4.2-.73.34a12.69,12.69,0,0,1-2.95.87,7.6,7.6,0,0,1-4.81-.7,6.54,6.54,0,0,1-2.28-2.12,5,5,0,0,1-.79-3.44,3.64,3.64,0,0,1,.8-1.78,2.29,2.29,0,0,1,1.84-.86,2.66,2.66,0,0,1,1.85,1,3.78,3.78,0,0,1,.85,2,5.5,5.5,0,0,1-1.51,4.24,6.61,6.61,0,0,1-4.19,2.1,11,11,0,0,1-4.87-.62,9,9,0,0,1-4.26-2.93,4.9,4.9,0,0,1-1-2.58,3.41,3.41,0,0,1,.93-2.68,2.12,2.12,0,0,1,1.37-.62,2.44,2.44,0,0,1,1.42.42,3.89,3.89,0,0,1,1.61,2.41,5.73,5.73,0,0,1-1.72,5.26,8.58,8.58,0,0,1-4.92,2,12,12,0,0,1-5.09-.52,7,7,0,0,1-3.88-3.08,5.41,5.41,0,0,1-.48-4.75,2.43,2.43,0,0,1,1.78-1.54,2.77,2.77,0,0,1,2.2.54,3.8,3.8,0,0,1,1,4,7,7,0,0,1-2.2,3.17,9.81,9.81,0,0,1-6,2.38,9.39,9.39,0,0,1-4.74-1.1,9.27,9.27,0,0,1-2.47-1.88,7.92,7.92,0,0,1-.53-.62,1,1,0,0,1-.15-.23,11.07,11.07,0,0,0,3.24,2.53,9.25,9.25,0,0,0,4.64,1,9.48,9.48,0,0,0,5.74-2.37,6.49,6.49,0,0,0,2.05-3,3.34,3.34,0,0,0-.91-3.53,2.3,2.3,0,0,0-1.83-.44,2,2,0,0,0-1.43,1.27A4.88,4.88,0,0,0,409,119a6.51,6.51,0,0,0,3.61,2.84,11.35,11.35,0,0,0,4.87.48,8,8,0,0,0,4.6-1.92,5.14,5.14,0,0,0,1.55-4.72,3.29,3.29,0,0,0-1.36-2.06,1.63,1.63,0,0,0-2.12.13,2.85,2.85,0,0,0-.77,2.24,4.34,4.34,0,0,0,.88,2.29,8.46,8.46,0,0,0,4,2.75,10.36,10.36,0,0,0,4.64.61,6.12,6.12,0,0,0,3.9-1.92,5,5,0,0,0,1.4-3.85,2.82,2.82,0,0,0-2.26-2.67,1.86,1.86,0,0,0-1.52.7,3.28,3.28,0,0,0-.72,1.57,4.68,4.68,0,0,0,.7,3.18,6.16,6.16,0,0,0,2.14,2,7.4,7.4,0,0,0,4.63.76,12.93,12.93,0,0,0,2.94-.76C440.8,120.45,441.14,120.3,441.15,120.32Z" style="fill:#fafafa"></path><rect x="369.51" y="82.21" width="20.73" height="40.72" style="fill:#f5f5f5"></rect><path d="M389.52,89a87,87,0,0,1-10,.29,87,87,0,0,1-10-.29,91.43,91.43,0,0,1,10-.28A91.43,91.43,0,0,1,389.52,89Z" style="fill:#e0e0e0"></path><path d="M389.78,92.06a86.48,86.48,0,0,1-9.91.28,86.23,86.23,0,0,1-9.9-.28,89.05,89.05,0,0,1,9.9-.28A89.31,89.31,0,0,1,389.78,92.06Z" style="fill:#e0e0e0"></path><path d="M390.44,118.32a95.72,95.72,0,0,1-10.43.28,95.46,95.46,0,0,1-10.42-.28A98.58,98.58,0,0,1,380,118,98.86,98.86,0,0,1,390.44,118.32Z" style="fill:#e0e0e0"></path><path d="M390.16,114.69A89.3,89.3,0,0,1,380,115a89.3,89.3,0,0,1-10.16-.29,93.83,93.83,0,0,1,10.16-.28A93.83,93.83,0,0,1,390.16,114.69Z" style="fill:#e0e0e0"></path><rect x="165.66" y="382.57" width="49.49" height="13.09" style="fill:#fafafa"></rect><path d="M194.23,409.46a1.35,1.35,0,0,1,0-.24v-.67c0-.62,0-1.48,0-2.58,0-2.26,0-5.51-.09-9.6l.16.15-49.49.1.25-.25h0V403q0,3.27,0,6.44l-.25-.25,35.27.11,10.42.07,2.81,0H194l.26,0H194l-.71,0-2.76,0-10.35.07-35.45.12h-.24v-.25c0-2.11,0-4.26,0-6.44v-6.63h0l.26-.26,49.49.1h.15v.16c0,4.13-.06,7.41-.08,9.69,0,1.09,0,1.94,0,2.55,0,.26,0,.47,0,.64A1.66,1.66,0,0,1,194.23,409.46Z" style="fill:#e0e0e0"></path><rect x="89.68" y="231.85" width="49.49" height="13.09" style="fill:#fafafa"></rect><path d="M118.25,258.74a1.35,1.35,0,0,1,0-.24v-.67c0-.62,0-1.48,0-2.58,0-2.26-.05-5.51-.08-9.61l.15.16-49.49.1c.11-.12-.26.25.25-.26h0v6.65c0,2.18,0,4.33,0,6.44l-.24-.25,35.27.11,10.41.07,2.81,0,.74,0,.26,0H118l-.71,0-2.76,0-10.35.07L68.76,259h-.25V252.3c0-1.1,0-2.2,0-3.31v-3.34h0l.26-.25,49.49.1h.15v.15c0,4.14-.06,7.42-.08,9.7,0,1.09,0,1.94,0,2.54,0,.27,0,.48,0,.65A1.66,1.66,0,0,1,118.25,258.74Z" style="fill:#e0e0e0"></path><path d="M402.58,205.87s0-.09,0-.24l0-.67q0-.93,0-2.58c0-2.26,0-5.51-.09-9.61l.15.16-49.49.1.25-.26h0v13.09l-.25-.25,35.27.11,10.41.07,2.82,0h.73l.26,0h-.22l-.71,0-2.76,0-10.36.07-35.44.11h-.24V192.78h0l.25-.25,49.49.1h.16v.15c0,4.14-.07,7.42-.09,9.7,0,1.09,0,1.94,0,2.54l0,.65A.85.85,0,0,1,402.58,205.87Z" style="fill:#e0e0e0"></path><path d="M409.3,192.77a.72.72,0,0,1,0-.25c0-.18,0-.41,0-.69,0-.64,0-1.52-.05-2.62,0-2.3-.06-5.54-.1-9.53l.18.18-29.73.07.25-.25h0v6.74c0,2.19,0,4.31,0,6.34l-.24-.24,21.27.12,6.2.06,1.67,0,.6,0a3.51,3.51,0,0,1-.54,0l-1.63,0-6.14.07-21.43.11h-.24v-.25c0-2,0-4.15,0-6.34v-6.74h0c-.06.06.47-.48.25-.25l29.73.07h.19v.18c0,4-.08,7.31-.1,9.64,0,1.08,0,2-.05,2.58S409.31,192.79,409.3,192.77Z" style="fill:#e0e0e0"></path><path d="M232.55,47.48a2.07,2.07,0,0,1,0-.23l0-.68,0-2.57c0-2.26,0-5.51-.08-9.61l.15.15-49.49.1.25-.25h0V41q0,3.28,0,6.44l-.24-.24,35.27.11,10.41.07,2.81,0,.74,0h.26s-.07,0-.23,0l-.7,0-2.77,0-10.35.07-35.44.11h-.25V34.41h0l.25-.25,49.49.1h.16v.15c0,4.14-.06,7.42-.08,9.7,0,1.09,0,1.93,0,2.54v.65C232.56,47.42,232.56,47.49,232.55,47.48Z" style="fill:#e0e0e0"></path><path d="M239.26,34.39s0-.09,0-.25,0-.41,0-.69c0-.65,0-1.52,0-2.63,0-2.29-.06-5.54-.1-9.52l.18.18-29.73.07.25-.25h0v3.39c0,1.12,0,2.24,0,3.33,0,2.19,0,4.32,0,6.35l-.24-.24,21.28.11,6.19.07,1.67,0,.6,0a3.35,3.35,0,0,1-.54,0l-1.62,0-6.14.07-21.44.11h-.24V28c0-1.09,0-2.21,0-3.33V21.32h0l.26-.26,29.73.08h.18v.18c0,4-.07,7.31-.09,9.63,0,1.09,0,2,0,2.59A6.94,6.94,0,0,1,239.26,34.39Z" style="fill:#e0e0e0"></path><path d="M429.76,425.86a1.35,1.35,0,0,1,0-.24c0-.17,0-.4,0-.67,0-.62,0-1.48,0-2.58,0-2.26-.05-5.51-.09-9.6l.16.15-49.49.1.25-.25h0v6.63q0,3.27,0,6.44l-.24-.25,35.27.11,10.41.07,2.81,0h.74l.26,0h-.23l-.71,0-2.76,0-10.35.07-35.44.11H380v-.25q0-3.17,0-6.44v-6.63h0l.26-.26,49.49.1h.15v.16c0,4.13-.06,7.41-.08,9.69,0,1.09,0,1.94,0,2.55,0,.26,0,.47,0,.64A1.66,1.66,0,0,1,429.76,425.86Z" style="fill:#e0e0e0"></path><path d="M436.47,412.76a1.22,1.22,0,0,1,0-.24c0-.19,0-.42,0-.7,0-.64,0-1.52-.05-2.62,0-2.3-.05-5.54-.09-9.53l.18.18-29.74.07.25-.25h0v6.74c0,2.19,0,4.31,0,6.34l-.24-.23,21.27.11,6.2.07,1.67,0,.6,0a3.51,3.51,0,0,1-.54,0l-1.62,0-6.14.07-21.44.12h-.24v-.25c0-2,0-4.15,0-6.34v-6.74h0l.25-.25,29.74.07h.18v.18c0,4-.07,7.31-.1,9.64,0,1.09,0,1.95,0,2.58S436.48,412.78,436.47,412.76Z" style="fill:#e0e0e0"></path><path d="M326.44,298.69a1.1,1.1,0,0,1,0-.24c0-.17,0-.39,0-.67,0-.61,0-1.47,0-2.57,0-2.26-.05-5.51-.09-9.61l.16.15-49.49.1.25-.25h0v6.63q0,3.28,0,6.44l-.25-.24,35.28.11,10.41.07,2.81,0,.74,0h.26l-.23,0h-.71l-2.76,0-10.35.07-35.45.11h-.24v-.25q0-3.15,0-6.44v-6.63h0c.51-.51.14-.14.26-.25l49.49.1h.15v.15c0,4.14-.06,7.42-.08,9.7,0,1.08,0,1.93,0,2.54l0,.64A1.31,1.31,0,0,1,326.44,298.69Z" style="fill:#e0e0e0"></path><path d="M333.15,285.6a1.41,1.41,0,0,1,0-.25c0-.19,0-.42,0-.69,0-.65,0-1.52-.05-2.63,0-2.3-.05-5.54-.09-9.52l.18.18-29.74.07.25-.25h0v6.72c0,2.19,0,4.31,0,6.35l-.24-.24,21.27.11,6.2.07,1.67,0,.6,0a3.51,3.51,0,0,1-.54,0l-1.62,0-6.14.06-21.44.12h-.24v-.24q0-3.06,0-6.35v-6.72h0c-.06.05.48-.48.25-.26l29.74.07h.18v.19c0,4-.07,7.31-.1,9.63,0,1.09,0,1.95,0,2.59S333.16,285.61,333.15,285.6Z" style="fill:#e0e0e0"></path></g><g id="freepik--Floor--inject-151"><path d="M471,463.71c0,.14-98.79.26-220.62.26s-220.64-.12-220.64-.26,98.76-.26,220.64-.26S471,463.56,471,463.71Z" style="fill:#263238"></path></g><g id="freepik--Plant--inject-151"><path d="M146.33,257.79c-10.73,5.56-19,15.13-24.87,25.67S111.73,305.55,108,317l-3.3,59.2c12.48-21.24,22.5-46.21,25.21-70.69l-8.31-.74c5.57-.85,10.25-4.89,13.22-9.68s4.51-10.3,6-15.73l-10.13,1.5A37.5,37.5,0,0,0,146.33,257.79Z" style="fill:#455a64"></path><g style="opacity:0.30000000000000004"><path d="M146.33,257.79c-10.73,5.56-19,15.13-24.87,25.67S111.73,305.55,108,317l-3.3,59.2c12.48-21.24,22.5-46.21,25.21-70.69l-8.31-.74c5.57-.85,10.25-4.89,13.22-9.68s4.51-10.3,6-15.73l-10.13,1.5A37.5,37.5,0,0,0,146.33,257.79Z"></path></g><path d="M102.8,390.1S75.7,357.67,76,326.7H87S75.07,318.88,76,314.51s1.26-21,1.26-21l10,2.5s-7.5-3.75-8.44-9.69S81,252.89,81,252.89s12.2,12.83,16,26,13.6,28.46,10.71,68.49S102.8,390.1,102.8,390.1Z" style="fill:#455a64"></path><path d="M116.54,393.16s29.36-19.56,35.88-44.52l-8.8-2.39s11.27-3.69,11.47-7.41,3.58-17.12,3.58-17.12l-8.6-.18s6.86-1.38,8.91-6,5.56-27.38,5.56-27.38-12.61,7.64-18.5,17.38-17.16,19.9-23.6,52.72S116.54,393.16,116.54,393.16Z" style="fill:#455a64"></path><path d="M88.42,281.17a1.87,1.87,0,0,1,.1.34l.24,1c.2.91.49,2.2.86,3.85s.81,3.72,1.28,6.1,1,5.1,1.6,8.11c1.16,6,2.39,13.2,3.65,21.2s2.44,16.83,3.52,26.11,1.89,18.15,2.53,26.23,1,15.35,1.28,21.47c.16,3.06.23,5.83.3,8.26s.13,4.53.14,6.24,0,3,0,3.94v1a2.37,2.37,0,0,1,0,.35,2,2,0,0,1,0-.35c0-.26,0-.6,0-1,0-.94-.08-2.26-.14-3.94s-.12-3.81-.23-6.24-.2-5.19-.37-8.25c-.29-6.11-.78-13.39-1.4-21.46s-1.5-16.92-2.56-26.2-2.29-18.09-3.49-26.09-2.42-15.19-3.53-21.21c-.53-3-1.07-5.73-1.52-8.12s-.86-4.45-1.2-6.12-.58-2.95-.77-3.87c-.07-.42-.14-.76-.18-1A1.85,1.85,0,0,1,88.42,281.17Z" style="fill:#263238"></path><path d="M99,410s-24.8-28.14-32.5-45.14l5.82-2.49c-4.22.7-8.53-1.11-11.8-3.86s-5.67-6.37-8-9.93l7.66-1.3a28.43,28.43,0,0,1-16.73-13c9,1.49,17.21,6.45,24,12.65a120.12,120.12,0,0,1,14.51,16.82A57.48,57.48,0,0,1,87.56,373C91.73,381.63,99.06,399.63,99,410Z" style="fill:#455a64"></path><path d="M152.81,304.58a1,1,0,0,1-.12.29c-.09.21-.22.48-.38.82l-1.5,3.12c-1.33,2.7-3.22,6.63-5.49,11.51s-4.92,10.72-7.75,17.25-5.78,13.77-8.75,21.42-5.62,15-7.94,21.76-4.29,12.82-5.88,18-2.84,9.31-3.68,12.2c-.42,1.42-.75,2.53-1,3.33l-.27.86a1.21,1.21,0,0,1-.11.29,1.11,1.11,0,0,1,.06-.3c0-.23.13-.52.22-.88l.89-3.35c.77-2.91,2-7.1,3.52-12.26s3.49-11.27,5.77-18,5-14.11,7.91-21.78,6-14.9,8.8-21.43S142.65,325,145,320.16s4.26-8.76,5.64-11.44l1.6-3.08.43-.79A1.77,1.77,0,0,1,152.81,304.58Z" style="fill:#263238"></path><path d="M101.15,422a2,2,0,0,1-.12-.52c-.07-.4-.15-.89-.25-1.49-.19-1.3-.51-3.17-1-5.48s-1.08-5-1.89-8-1.87-6.23-3.12-9.58-2.65-6.46-4-9.26-2.68-5.24-3.87-7.27-2.17-3.64-2.89-4.74l-.8-1.28a1.78,1.78,0,0,1-.25-.47,2.08,2.08,0,0,1,.33.41l.89,1.23c.77,1.06,1.81,2.66,3,4.67s2.59,4.46,4,7.24,2.76,5.92,4,9.28,2.28,6.64,3.1,9.65,1.39,5.75,1.8,8.07.67,4.2.8,5.51l.15,1.51A2.67,2.67,0,0,1,101.15,422Z" style="fill:#263238"></path><rect x="79.59" y="415.4" width="54.27" height="11.07" style="fill:#5EA4FF"></rect><polygon points="84.77 426.47 90.64 463.71 123.43 463.71 128.9 426.47 84.77 426.47" style="fill:#5EA4FF"></polygon><path d="M130.54,426.47c0,.14-10.27.26-22.93.26s-22.93-.12-22.93-.26,10.26-.26,22.93-.26S130.54,426.33,130.54,426.47Z" style="fill:#263238"></path></g><g id="freepik--Table--inject-151"><path d="M383.27,248.78a5.35,5.35,0,0,1,.38,2.37,8,8,0,0,1,1.08-2.69c.2-.31.51-.64.86-.55s.47.54.48.9a5.75,5.75,0,0,1-.66,2.9,6.5,6.5,0,0,1,2.45-1.9.56.56,0,0,1,.53,0c.19.11.19.37.16.59a5,5,0,0,1-3,3.83l-.52.07a4.6,4.6,0,0,1-3.31-5.3c.08-.43.32-.93.76-.94S383.13,248.41,383.27,248.78Z" style="fill:#5EA4FF"></path><path d="M394.91,272a15,15,0,0,0-4.93-2,20.38,20.38,0,0,0,.14-10.9,10.6,10.6,0,0,0-1.84-3.93,5.36,5.36,0,0,0-3.71-2.06,5.17,5.17,0,0,0-4.11,1.9l-1.82,4.21a14.58,14.58,0,0,0-.22,1.85,22.18,22.18,0,0,0,2.66,11.78,12.34,12.34,0,0,0-3.34,9.87h21.62A12,12,0,0,0,394.91,272Z" style="fill:#455a64"></path><path d="M380.11,274.22s.05-.09.16-.23a8.27,8.27,0,0,1,.54-.63,10,10,0,0,1,2.4-1.83,11.43,11.43,0,0,1,4.26-1.36,10.33,10.33,0,0,1,9.69,4.18,11.4,11.4,0,0,1,1.94,4,9.88,9.88,0,0,1,.31,3,6.08,6.08,0,0,1-.08.82,1.18,1.18,0,0,1-.06.28,13.36,13.36,0,0,0-.4-4,11.25,11.25,0,0,0-1.95-3.91,10.2,10.2,0,0,0-9.42-4.06,11.38,11.38,0,0,0-4.18,1.27A13,13,0,0,0,380.11,274.22Z" style="fill:#263238"></path><path d="M378.3,262.65a5.49,5.49,0,0,1,0-1.43,12.3,12.3,0,0,1,.58-3.42,7.06,7.06,0,0,1,1.85-2.94,2.86,2.86,0,0,1,1.22-.77s-.46.31-1.06.93a7.69,7.69,0,0,0-1.7,2.89,15.9,15.9,0,0,0-.66,3.33A7.38,7.38,0,0,1,378.3,262.65Z" style="fill:#263238"></path><path d="M390.8,280a20.16,20.16,0,0,1,2-2.06,19.42,19.42,0,0,1,2.09-2,9.12,9.12,0,0,1-1.86,2.23A9.39,9.39,0,0,1,390.8,280Z" style="fill:#263238"></path><path d="M388.39,278.75a7.66,7.66,0,0,1,.35-2.15,8.07,8.07,0,0,1,.67-2.07,6.88,6.88,0,0,1-.35,2.15A7.26,7.26,0,0,1,388.39,278.75Z" style="fill:#263238"></path><path d="M382,276.34a5.91,5.91,0,0,1,1.23,2,5.81,5.81,0,0,1,.66,2.21,14,14,0,0,1-1-2.08A13.41,13.41,0,0,1,382,276.34Z" style="fill:#263238"></path><path d="M388.92,266.25A20.92,20.92,0,0,1,392.1,262a10.4,10.4,0,0,1-1.46,2.2A10.54,10.54,0,0,1,388.92,266.25Z" style="fill:#263238"></path><path d="M387.39,259.49a16.23,16.23,0,0,1,1.66-2.71,15.56,15.56,0,0,1,1.92-2.52,14.94,14.94,0,0,1-1.65,2.71A15.27,15.27,0,0,1,387.39,259.49Z" style="fill:#263238"></path><path d="M385,261.26a8.52,8.52,0,0,1,.3,2.29,8.21,8.21,0,0,1,0,2.31,8,8,0,0,1-.3-2.29A7.81,7.81,0,0,1,385,261.26Z" style="fill:#263238"></path><path d="M375.24,264.34a13.42,13.42,0,0,1,3.07,1.57,13.73,13.73,0,0,1,2.8,2,28,28,0,0,1-3-1.73A27.33,27.33,0,0,1,375.24,264.34Z" style="fill:#263238"></path><g style="opacity:0.30000000000000004"><path d="M383,270.16a7.53,7.53,0,0,1,3.5-.87,4.39,4.39,0,0,1,3.52,1v0a13.15,13.15,0,0,0-8.88,2.77A3.54,3.54,0,0,1,383,270.16Z"></path></g><path d="M393.3,227.71a4.21,4.21,0,0,1,1.9-.08,6.16,6.16,0,0,1-2-1.1c-.22-.18-.45-.45-.35-.72s.46-.31.75-.29a4.57,4.57,0,0,1,2.2.79,5.06,5.06,0,0,1-1.25-2.1.45.45,0,0,1,0-.41c.1-.14.31-.12.47-.07a3.88,3.88,0,0,1,2.71,2.71v.41a3.63,3.63,0,0,1-1.82,1.92,3.7,3.7,0,0,1-2.64.18c-.32-.11-.69-.35-.66-.69S393,227.79,393.3,227.71Z" style="fill:#5EA4FF"></path><path d="M436.9,200.08a4.31,4.31,0,0,1-.09,1.89,6.36,6.36,0,0,1,1.26-1.9c.2-.21.49-.41.75-.29s.28.49.23.77a4.56,4.56,0,0,1-1,2.13,5,5,0,0,1,2.19-1.07.47.47,0,0,1,.42,0c.12.12.08.32,0,.48a3.91,3.91,0,0,1-2.94,2.47l-.41,0a3.66,3.66,0,0,1-1.71-4.62c.13-.32.4-.66.74-.6S436.84,199.77,436.9,200.08Z" style="fill:#5EA4FF"></path><path d="M406.54,256.6c.33,0,.62,0,.93.08.56-6.18-1.31-12.45.58-18.35l-.25.32a14,14,0,0,1-6.78-.6,8.48,8.48,0,0,1-4.9-4.55,6.12,6.12,0,0,1,1-6.41c2.14-2.24,5.9-2.12,8.59-.58s4.4,4,6.1,6.43a11.73,11.73,0,0,1,2.95-1.7c-3-4.1-5.86-8.41-6.8-13.36-1-5.42,1-11.84,6-14.11,4.29-1.93,9.66-.18,12.68,3.42.24.28.44.58.65.88l-.1-.29a7.78,7.78,0,0,1,4.07-4.29,6.61,6.61,0,0,1,5.85.28,5.78,5.78,0,0,1,2.88,5,6.44,6.44,0,0,1-3.73,5.34,10.05,10.05,0,0,1-6.41.6,19.78,19.78,0,0,1,0,5.75A33.24,33.24,0,0,1,425,232.54a10.62,10.62,0,0,1,1.75,1.45c3.89,4.07,4.14,10.6,2.1,15.84s-7.54,9.1-11.37,13.23h0a25.21,25.21,0,0,1,2.94,9.22,8.39,8.39,0,0,1,7.4-4.75c1.67,0,3.53.76,4.05,2.35.46,1.39-.31,2.91-1.3,4a10.62,10.62,0,0,1-9.79,2.87l0-1a44.26,44.26,0,0,1-.17,7H395.91S389.32,256,406.54,256.6Z" style="fill:#455a64"></path><rect x="367.64" y="282.75" width="58.36" height="10.34" transform="translate(793.64 575.85) rotate(180)" style="fill:#5EA4FF"></rect><polygon points="421.64 291.05 414.55 321.95 379.76 321.95 372 291.05 421.64 291.05" style="fill:#5EA4FF"></polygon><path d="M367.67,293.11c0,.11,13.17.21,29.4.21s29.4-.1,29.4-.21-13.16-.21-29.4-.21S367.67,293,367.67,293.11Z" style="fill:#263238"></path><path d="M402,257.62a1.29,1.29,0,0,1,.34-.19,6.88,6.88,0,0,1,1-.44,10,10,0,0,1,4.06-.47,12.4,12.4,0,0,1,5.72,2,15.41,15.41,0,0,1,4.91,5.55,22.6,22.6,0,0,1,2.35,7.05,37.75,37.75,0,0,1,.39,6.06c0,1.72-.06,3.12-.1,4.08,0,.45,0,.82,0,1.11a2.28,2.28,0,0,1,0,.38,1.88,1.88,0,0,1,0-.38c0-.29,0-.66,0-1.11,0-1,0-2.39,0-4.08a40.33,40.33,0,0,0-.46-6,22.77,22.77,0,0,0-2.34-6.94,15.27,15.27,0,0,0-4.79-5.46,12.43,12.43,0,0,0-5.57-2,10.46,10.46,0,0,0-4,.36C402.45,257.39,402,257.66,402,257.62Z" style="fill:#263238"></path><path d="M407.18,244.53a1.4,1.4,0,0,1,0-.3c0-.19,0-.47,0-.84a13.66,13.66,0,0,1,.37-3.09,14.4,14.4,0,0,1,1.71-4.29,11.81,11.81,0,0,1,1.65-2.18,10.19,10.19,0,0,1,2.31-1.83,10,10,0,0,1,2.76-1.06,11.17,11.17,0,0,1,2.73-.2,13.6,13.6,0,0,1,4.5,1.06,15.5,15.5,0,0,1,2.73,1.49c.3.2.52.39.67.5s.23.19.22.2-.34-.21-1-.59a17.27,17.27,0,0,0-2.75-1.38,13.67,13.67,0,0,0-4.42-1,11.63,11.63,0,0,0-2.66.21,10,10,0,0,0-2.65,1,9.37,9.37,0,0,0-2.24,1.77,11.77,11.77,0,0,0-1.63,2.12,14.8,14.8,0,0,0-1.75,4.18,15.68,15.68,0,0,0-.46,3C407.2,244.12,407.21,244.52,407.18,244.53Z" style="fill:#263238"></path><path d="M430.11,218.43a11.77,11.77,0,0,1-.21-2c0-.61-.11-1.34-.24-2.13a10.55,10.55,0,0,0-.7-2.51,25.69,25.69,0,0,0-2.25-4.19c-.68-1-1.19-1.58-1.15-1.62a1.9,1.9,0,0,1,.4.36,11.79,11.79,0,0,1,.94,1.13,20.63,20.63,0,0,1,2.36,4.2,9.76,9.76,0,0,1,.7,2.58,16.58,16.58,0,0,1,.17,2.16A11.41,11.41,0,0,1,430.11,218.43Z" style="fill:#263238"></path><path d="M426.93,273.89a6.82,6.82,0,0,1,1.68,1.24,7.19,7.19,0,0,1,1.47,1.49,6.76,6.76,0,0,1-1.69-1.24A7,7,0,0,1,426.93,273.89Z" style="fill:#263238"></path><path d="M429,271.83a6.84,6.84,0,0,1,2.09-.37,6.68,6.68,0,0,1,2.12,0,14.44,14.44,0,0,1-4.21.41Z" style="fill:#263238"></path><path d="M427.43,268.19a11,11,0,0,1,1.17-1.62,12.89,12.89,0,0,1,1.18-1.62,4.28,4.28,0,0,1-.91,1.81A4.37,4.37,0,0,1,427.43,268.19Z" style="fill:#263238"></path><path d="M424.67,266.52a9.36,9.36,0,0,1-.38,2.39,8.7,8.7,0,0,1-.71,2.31,9.67,9.67,0,0,1,.39-2.39A8.49,8.49,0,0,1,424.67,266.52Z" style="fill:#263238"></path><path d="M422.82,274.86c-.06-.07.33-.52.87-1s1-.83,1.09-.76-.33.52-.87,1S422.88,274.92,422.82,274.86Z" style="fill:#263238"></path><path d="M414.24,273.24a4.76,4.76,0,0,1,1.06-1.34c.65-.68,1.23-1.17,1.3-1.11a4.76,4.76,0,0,1-1.06,1.34C414.89,272.81,414.31,273.3,414.24,273.24Z" style="fill:#263238"></path><path d="M412.38,265.32a9.93,9.93,0,0,1,1.86-3,9.62,9.62,0,0,1-1.86,3Z" style="fill:#263238"></path><path d="M406.92,258.87A13.35,13.35,0,0,1,407,263a6.49,6.49,0,0,1-.19-2.06A6.59,6.59,0,0,1,406.92,258.87Z" style="fill:#263238"></path><path d="M395.46,261.06a15.09,15.09,0,0,1,1.63,1.9,14.45,14.45,0,0,1,1.56,2,7.06,7.06,0,0,1-1.81-1.75A7.25,7.25,0,0,1,395.46,261.06Z" style="fill:#263238"></path><path d="M394,272.31a7.1,7.1,0,0,1,2,.23,6.54,6.54,0,0,1,2,.55,6.36,6.36,0,0,1-2-.23A6.44,6.44,0,0,1,394,272.31Z" style="fill:#263238"></path><path d="M405.88,276.24A9.07,9.07,0,0,1,408,272a14.6,14.6,0,0,1-1.06,2.12A16.11,16.11,0,0,1,405.88,276.24Z" style="fill:#263238"></path><path d="M401.92,270.84a8.8,8.8,0,0,1-.08-3.34,4.41,4.41,0,0,1,.2,1.67A4.28,4.28,0,0,1,401.92,270.84Z" style="fill:#263238"></path><path d="M414.71,280.36a3.81,3.81,0,0,1,.69-1.74,3.72,3.72,0,0,1,1.24-1.41,9.82,9.82,0,0,1-1,1.58A10.21,10.21,0,0,1,414.71,280.36Z" style="fill:#263238"></path><path d="M401.14,281.14a5.43,5.43,0,0,1-.89-1.6,5.07,5.07,0,0,1-.58-1.74,10.42,10.42,0,0,1,1.47,3.34Z" style="fill:#263238"></path><path d="M422.23,256a8,8,0,0,1,2.26-.09,7.76,7.76,0,0,1,2.25.24,15.5,15.5,0,0,1-4.51-.15Z" style="fill:#263238"></path><path d="M427.15,247.62a23.42,23.42,0,0,1,4.53-3.21,11.88,11.88,0,0,1-2.17,1.74A11.36,11.36,0,0,1,427.15,247.62Z" style="fill:#263238"></path><path d="M426.64,236.81a12.81,12.81,0,0,1,1.77-1.17,13.83,13.83,0,0,1,1.77-1.18,7,7,0,0,1-3.54,2.35Z" style="fill:#263238"></path><path d="M421.13,233a11.06,11.06,0,0,1,.48-2.63,11.33,11.33,0,0,1,.79-2.56,10.73,10.73,0,0,1-.47,2.63A11.24,11.24,0,0,1,421.13,233Z" style="fill:#263238"></path><path d="M411.92,230.26a5.66,5.66,0,0,1,1.07,1.58,5.8,5.8,0,0,1,.78,1.75A5.57,5.57,0,0,1,412.7,232,5.69,5.69,0,0,1,411.92,230.26Z" style="fill:#263238"></path><path d="M404,248.51a28.22,28.22,0,0,1,2.5,1.58c1.38.85,2.57,1.43,2.53,1.52a8.44,8.44,0,0,1-2.7-1.24A8.91,8.91,0,0,1,404,248.51Z" style="fill:#263238"></path><path d="M416.85,252.61a5.9,5.9,0,0,1,1.58-1.17,6.13,6.13,0,0,1,1.75-.89,5.9,5.9,0,0,1-1.58,1.17A6,6,0,0,1,416.85,252.61Z" style="fill:#263238"></path><path d="M419,243.88c-.06-.07.77-.89,1.54-2.08s1.2-2.28,1.29-2.24a5.28,5.28,0,0,1-1,2.42A5.34,5.34,0,0,1,419,243.88Z" style="fill:#263238"></path><path d="M414.78,241.91a7,7,0,0,1-.07-2.11,7.12,7.12,0,0,1,.26-2.1,7,7,0,0,1,.07,2.11A6.82,6.82,0,0,1,414.78,241.91Z" style="fill:#263238"></path><path d="M412.44,250.54a7.51,7.51,0,0,1-.41-2.14,7.35,7.35,0,0,1-.09-2.18,7.3,7.3,0,0,1,.42,2.14A7.53,7.53,0,0,1,412.44,250.54Z" style="fill:#263238"></path><path d="M405.92,224.55a21.27,21.27,0,0,1,.68,2.41,17.93,17.93,0,0,1,.69,2.42,6.81,6.81,0,0,1-1-2.33A6.4,6.4,0,0,1,405.92,224.55Z" style="fill:#263238"></path><path d="M401.32,239.7a16,16,0,0,1,1.88-1.39,18.24,18.24,0,0,1,1.9-1.37,5.7,5.7,0,0,1-1.7,1.64A5.9,5.9,0,0,1,401.32,239.7Z" style="fill:#263238"></path><path d="M395.07,235.05a14.62,14.62,0,0,1,2.3-.47,14.15,14.15,0,0,1,2.31-.41,6.13,6.13,0,0,1-2.25.73A6.31,6.31,0,0,1,395.07,235.05Z" style="fill:#263238"></path><path d="M401.15,229.85c.05-.08.64.21,1.32.65s1.18.84,1.13.92-.63-.21-1.31-.65S401.1,229.93,401.15,229.85Z" style="fill:#263238"></path><path d="M398.12,224.24a5.95,5.95,0,0,1,2.51,2.88,10,10,0,0,1-1.27-1.43A10.77,10.77,0,0,1,398.12,224.24Z" style="fill:#263238"></path><path d="M394,229.59a11.44,11.44,0,0,1,2.13.53,11.77,11.77,0,0,1,2.1.6,5.42,5.42,0,0,1-2.19-.29A5.51,5.51,0,0,1,394,229.59Z" style="fill:#263238"></path><path d="M422.63,222.39a29.92,29.92,0,0,1,1.86-2.84,28.68,28.68,0,0,1,1.9-2.82,12.7,12.7,0,0,1-1.62,3A13.26,13.26,0,0,1,422.63,222.39Z" style="fill:#263238"></path><path d="M420.79,215.84a9.42,9.42,0,0,1,.15-2.45,9.32,9.32,0,0,1,.49-2.4,9.19,9.19,0,0,1-.16,2.45A9.45,9.45,0,0,1,420.79,215.84Z" style="fill:#263238"></path><path d="M414.42,216.86c.1,0,.37,1.24,1,2.68s1.35,2.51,1.27,2.56a6.54,6.54,0,0,1-1.58-2.43A6.72,6.72,0,0,1,414.42,216.86Z" style="fill:#263238"></path><path d="M407,218.44c.07-.06,1,1,2.29,2.25s2.43,2.07,2.38,2.15a9.47,9.47,0,0,1-2.61-1.92A9.22,9.22,0,0,1,407,218.44Z" style="fill:#263238"></path><path d="M409.84,204.86c.09,0,.38,1.37.9,3s1,3,1,3a13.71,13.71,0,0,1-1.86-6Z" style="fill:#263238"></path><path d="M418.45,200.4a18.46,18.46,0,0,1,.3,4.85,9.13,9.13,0,0,1-.31-2.42A9.34,9.34,0,0,1,418.45,200.4Z" style="fill:#263238"></path><path d="M436.23,211.88a9.6,9.6,0,0,1,1.85.13,10.56,10.56,0,0,1,1.85.17,3.7,3.7,0,0,1-1.87.16A3.84,3.84,0,0,1,436.23,211.88Z" style="fill:#263238"></path><path d="M435.71,207.4a13,13,0,0,1,2.54-1.54,13.73,13.73,0,0,1,2.7-1.25,13.73,13.73,0,0,1-2.55,1.54A13.52,13.52,0,0,1,435.71,207.4Z" style="fill:#263238"></path><path d="M430.9,207.56a8.15,8.15,0,0,1,.54-2.29,8.35,8.35,0,0,1,.86-2.18,8.48,8.48,0,0,1-.54,2.28A9.19,9.19,0,0,1,430.9,207.56Z" style="fill:#263238"></path><g style="opacity:0.30000000000000004"><path d="M417.44,263.08a7.73,7.73,0,0,0-3.29-6c-1.94-1.3-5.44-1.43-6.82-.45a10.46,10.46,0,0,1,6,2.06,16.92,16.92,0,0,1,4.13,4.43"></path></g><g style="opacity:0.30000000000000004"><path d="M425,233a6.67,6.67,0,0,0-4.69-3.66c-2-.36-4.82.75-5.57,2a9.1,9.1,0,0,1,5.46-.43A14.29,14.29,0,0,1,425,233"></path></g><g style="opacity:0.30000000000000004"><path d="M430.08,215.08a5.25,5.25,0,0,0,.32-4.54,4.44,4.44,0,0,0-3.25-2.61,13.73,13.73,0,0,1,2.89,7.24"></path></g><path d="M398.94,259s-.26.24-.66.72a12.64,12.64,0,0,0-1.49,2.19,23.85,23.85,0,0,0-2.15,8.45,38.66,38.66,0,0,0,.44,8.76c.17,1.11.34,2,.45,2.63a4.6,4.6,0,0,1,.15,1,5.74,5.74,0,0,1-.28-.94c-.16-.61-.37-1.5-.57-2.62a34.73,34.73,0,0,1-.55-8.83,22.69,22.69,0,0,1,2.28-8.54,11.3,11.3,0,0,1,1.61-2.16A3,3,0,0,1,398.94,259Z" style="fill:#263238"></path><path d="M426,282.75l-.18,0-.52,0-2,0-7.36.05-24.3.05-24-.05.12-.12c0,3.18,0,5.77,0,7.58,0,.88,0,1.57,0,2.06,0,.22,0,.4,0,.54s0,.18,0,.18a1.23,1.23,0,0,1,0-.18c0-.14,0-.32,0-.54,0-.49,0-1.18,0-2.06,0-1.81,0-4.39-.08-7.58v-.11h.12l24-.05,24.3.05,7.36.05,2,0,.52,0Z" style="fill:#263238"></path><path d="M406.29,309.67v12.82h-55.1a6.4,6.4,0,0,1-6.4-6.41h0a6.4,6.4,0,0,1,6.4-6.41" style="fill:#e0e0e0"></path><path d="M387.7,312.36h18.59a0,0,0,0,1,0,0v7.44a0,0,0,0,1,0,0H387.7a3.28,3.28,0,0,1-3.28-3.28v-.89A3.28,3.28,0,0,1,387.7,312.36Z" style="fill:#fafafa"></path><polygon points="430.14 301.08 421.39 321.87 427.02 321.87 430.91 310.65 430.14 301.08" style="fill:#455a64"></polygon><polygon points="457.01 282.34 460.44 322.06 431.83 321.95 428.65 282.34 457.01 282.34" style="fill:#455a64"></polygon><polygon points="454.22 285.44 457.18 318.24 435.71 318.52 432.81 285.25 454.22 285.44" style="fill:#fafafa"></polygon><polygon points="449.66 289.98 451.35 312.55 439.89 312.55 437.87 289.98 449.66 289.98" style="fill:#263238"></polygon><rect x="356.17" y="372.55" width="12.38" height="91.07" style="fill:#455a64"></rect><rect x="452.07" y="371.8" width="12.38" height="91.91" style="fill:#455a64"></rect><polygon points="470.26 373.64 351.55 373.86 351.55 329.91 470.26 329.91 470.26 373.64" style="fill:#455a64"></polygon><path d="M470.26,373.64s0-.27,0-.78,0-1.26,0-2.25c0-2,0-4.89,0-8.66,0-7.52-.05-18.43-.09-32l.15.15-118.71.07.22-.22v.1c0,15.3,0,30.11,0,43.85l-.21-.21,85-.06h24.75l6.63,0h1.75l-1.7,0-6.58,0-24.7.11-85.17.26h-.22v-44.4h.22l118.71.08h.16v.15c0,13.64-.07,24.59-.09,32.14,0,3.74,0,6.64,0,8.62,0,1,0,1.71,0,2.22S470.26,373.64,470.26,373.64Z" style="fill:#263238"></path><path d="M460.51,365s0-.18,0-.51,0-.83,0-1.46c0-1.29,0-3.18,0-5.62,0-4.9-.05-12-.08-20.94l.16.14-100,.07h0l.24-.21V365l-.24-.2,71.51.09,20.9.06,5.61,0H460l.51,0H458.6L453,365l-20.85.05-71.67.1h-.23V365c0-9,0-18.62,0-28.53v-.2h.25l100,.07h.15v.13c0,9-.06,16.1-.08,21,0,2.43,0,4.31,0,5.59,0,.63,0,1.1,0,1.44S460.51,365,460.51,365Z" style="fill:#263238"></path><path d="M364.1,361.21a7.54,7.54,0,0,1-1.58,1.91,7.8,7.8,0,0,1-1.89,1.62,7.23,7.23,0,0,1,1.57-1.9A7.65,7.65,0,0,1,364.1,361.21Z" style="fill:#263238"></path><path d="M364.1,340.17a7.86,7.86,0,0,1-2-1.73,8.22,8.22,0,0,1-1.64-2,8.12,8.12,0,0,1,2,1.73A8.22,8.22,0,0,1,364.1,340.17Z" style="fill:#263238"></path><path d="M460.68,336.52a8,8,0,0,1-2.17,2,13.74,13.74,0,0,1-2.5,1.67,8.32,8.32,0,0,1,2.18-2A13.49,13.49,0,0,1,460.68,336.52Z" style="fill:#263238"></path><path d="M460.51,365a10.48,10.48,0,0,1-2.41-1.72,9.47,9.47,0,0,1-2.08-2,10.48,10.48,0,0,1,2.41,1.72A9.5,9.5,0,0,1,460.51,365Z" style="fill:#263238"></path><path d="M456,361.22s0-.13,0-.38l0-1.06c0-1,0-2.34,0-4.13,0-3.61-.05-8.85-.08-15.48l.14.13-91.52.08h0l.23-.21v21.05l-.23-.21,65.31.1,19.22.05,5.18,0h1.35l.46,0h-1.75l-5.13,0-19.17.05-65.47.1h-.24V340h.24l91.52.08h.15v.12c0,6.66-.06,11.93-.08,15.55,0,1.78,0,3.16,0,4.1,0,.45,0,.8,0,1.05S456,361.22,456,361.22Z" style="fill:#263238"></path><path d="M418.68,348.75a9.05,9.05,0,0,0-2.23-1,7.41,7.41,0,0,0-2.2-.32h-6.11a7.24,7.24,0,0,0-4.87,1.78,4,4,0,0,0-.73.83,2.28,2.28,0,0,0,.24,2.83c.78.7,2.39.36,2.52-.65a2.6,2.6,0,0,0,2.82,2.36,3.52,3.52,0,0,0,3-2.46,2.41,2.41,0,0,0,2.21,2.28,2.46,2.46,0,0,0,2.54-1.94c.75.93,1.87,1.8,3.16,1.4a2.21,2.21,0,0,0,1.46-1.55A3.42,3.42,0,0,0,418.68,348.75Z" style="fill:#e0e0e0"></path><path d="M409.23,347.44a12.06,12.06,0,0,0-2.51,2.18,11.32,11.32,0,0,0-1.42,2.93c-.05,0-.09-.39,0-1a5.53,5.53,0,0,1,1-2.19,5.94,5.94,0,0,1,1.87-1.59A2.07,2.07,0,0,1,409.23,347.44Z" style="fill:#263238"></path><path d="M411.57,347.68a6.26,6.26,0,0,1,0,2.3,6.42,6.42,0,0,1-.47,2.26,6.23,6.23,0,0,1,0-2.3A6.13,6.13,0,0,1,411.57,347.68Z" style="fill:#263238"></path><path d="M414.52,347.62c0-.05.34.07.7.45a3.46,3.46,0,0,1,.86,1.79,6.26,6.26,0,0,1,0,1.93c-.08.48-.16.77-.22.77s-.08-.31-.09-.79a12,12,0,0,0-.13-1.84,4.45,4.45,0,0,0-.68-1.68C414.71,347.86,414.48,347.67,414.52,347.62Z" style="fill:#263238"></path><rect x="343.03" y="321.96" width="134.35" height="10.58" style="fill:#455a64"></rect><path d="M477.38,332.53s0-.24,0-.69,0-1.14,0-2c0-1.79,0-4.42,0-7.85l.08.08L343,322.18h0l.22-.22v10.57l-.22-.22,95.3.09,28.58.07,7.75,0,2,0h.7l-.67,0h-2l-7.7,0-28.53.07-95.46.09h-.22v-11H343l134.34.14h.08V322c0,3.45,0,6.1,0,7.9,0,.87,0,1.54,0,2S477.38,332.53,477.38,332.53Z" style="fill:#263238"></path></g><g id="freepik--speech-bubbles--inject-151"><circle cx="167.33" cy="88.39" r="27.22" transform="translate(-17.27 46.74) rotate(-15.13)" style="fill:#fff"></circle><path d="M187.93,70.59l-.32-.3-.92-.92-.66-.68c-.26-.24-.56-.47-.88-.74a18.78,18.78,0,0,0-2.27-1.75,26.12,26.12,0,0,0-7-3.48,27.25,27.25,0,0,0-10.23-1.29,26.9,26.9,0,0,0-21.85,13.79,28.37,28.37,0,0,0-1.65,3.47c-.23.61-.41,1.23-.61,1.86a12.18,12.18,0,0,0-.5,1.91,30.67,30.67,0,0,0-.62,4,32.89,32.89,0,0,0,0,4.09,25.94,25.94,0,0,0,1.94,8.14,26.74,26.74,0,0,0,11.12,12.88,26,26,0,0,0,7.78,3.1,29.51,29.51,0,0,0,4,.64,29.92,29.92,0,0,0,4,0,14.15,14.15,0,0,0,2-.21c.65-.12,1.3-.2,1.93-.34a28,28,0,0,0,3.68-1.13,27.07,27.07,0,0,0,17-29.92,25.8,25.8,0,0,0-2.42-7.43,18.76,18.76,0,0,0-1.4-2.5c-.22-.35-.41-.68-.61-1L189,72l-.78-1a3.51,3.51,0,0,1-.25-.36,2,2,0,0,1,.29.33l.82,1,.6.74c.21.29.4.62.63,1a17.86,17.86,0,0,1,1.45,2.49,25.63,25.63,0,0,1,2.53,7.47,27.42,27.42,0,0,1-5.46,21.87A27.63,27.63,0,0,1,177.12,114a29,29,0,0,1-3.74,1.16c-.65.14-1.31.23-2,.35a14.92,14.92,0,0,1-2,.22,24.91,24.91,0,0,1-8.22-.61,26.54,26.54,0,0,1-7.92-3.16,27.09,27.09,0,0,1-11.34-13.12,26.46,26.46,0,0,1-2-8.3,32.27,32.27,0,0,1,0-4.17,31.48,31.48,0,0,1,.63-4,14.32,14.32,0,0,1,.51-1.95c.22-.63.4-1.27.63-1.89A30.16,30.16,0,0,1,143.39,75a27.53,27.53,0,0,1,10.16-10.3A27.36,27.36,0,0,1,176,62.45,26,26,0,0,1,183,66a20.31,20.31,0,0,1,2.25,1.8c.32.28.62.52.87.77l.65.7.88,1A2.35,2.35,0,0,1,187.93,70.59Z" style="fill:#263238"></path><path d="M159.94,80.78h4.31A3.66,3.66,0,0,1,168,77.1a3.47,3.47,0,0,1,3.38,2.22,3.85,3.85,0,0,1-.31,3.5c-.73,1.2-2.33,2.3-5.24,1.79v9.72h4.27v-5.7a8.32,8.32,0,0,0,6-8.13c0-6.31-5.66-7.77-8.08-7.77C166.16,72.73,159.86,73.18,159.94,80.78Z" style="fill:#5EA4FF"></path><rect x="165.83" y="96.33" width="4.33" height="4.04" style="fill:#5EA4FF"></rect><path d="M204.56,101.14a3.31,3.31,0,1,1-3.31-3.31A3.31,3.31,0,0,1,204.56,101.14Z" style="fill:#fff"></path><path d="M204.56,101.14a7.49,7.49,0,0,1-.2-.79,3.33,3.33,0,0,0-1.22-1.7,3.13,3.13,0,0,0-2.93-.39,3.07,3.07,0,0,0,0,5.76,3.14,3.14,0,0,0,2.93-.4,3.33,3.33,0,0,0,1.22-1.7c.15-.49.15-.79.2-.78s.09.29,0,.83a3.26,3.26,0,0,1-1.18,1.94,3.49,3.49,0,0,1-3.32.56,3.53,3.53,0,0,1,0-6.66,3.46,3.46,0,0,1,3.32.55,3.26,3.26,0,0,1,1.18,1.94A1.5,1.5,0,0,1,204.56,101.14Z" style="fill:#263238"></path><path d="M303.62,97.88l9.09-.53a29.32,29.32,0,1,0-6.28-8.42h0Z" style="fill:#fff"></path><path d="M303.62,97.88s.05-.19.16-.57l.52-1.71c.47-1.53,1.15-3.78,2.05-6.71l0-.12.09.1h0l-.13.08a29.3,29.3,0,0,1-3.09-14.06,27.77,27.77,0,0,1,.5-4.52,32.78,32.78,0,0,1,1.33-4.69,29.18,29.18,0,0,1,14.73-16.24,29.54,29.54,0,0,1,12.28-3,29.12,29.12,0,0,1,13.11,2.84,28.8,28.8,0,0,1,10.89,8.86c.35.49.72,1,1.07,1.46l.93,1.55.46.77.39.81c.25.54.51,1.08.77,1.62s.41,1.11.62,1.66a14.39,14.39,0,0,1,.56,1.68,27.31,27.31,0,0,1,.76,3.43,29.08,29.08,0,0,1-7.24,24.47,29.37,29.37,0,0,1-19.8,9.58,30.67,30.67,0,0,1-4.9-.06,37.91,37.91,0,0,1-4.48-.81,29.17,29.17,0,0,1-12.59-6.94l.06,0-6.8.35-1.73.09-.57,0,.6,0,1.75-.12,6.74-.44h0l0,0a29.1,29.1,0,0,0,12.54,6.83,37.62,37.62,0,0,0,4.46.78,32.56,32.56,0,0,0,4.85,0,29.1,29.1,0,0,0,10.22-2.63,29,29,0,0,0,16.49-31.11,26.91,26.91,0,0,0-.75-3.38,14,14,0,0,0-.55-1.66c-.21-.55-.38-1.11-.62-1.65s-.5-1.06-.76-1.59l-.38-.8-.46-.76-.92-1.53c-.34-.49-.7-1-1.06-1.45a28.63,28.63,0,0,0-10.75-8.76,29,29,0,0,0-13-2.81,29.27,29.27,0,0,0-21.37,9.92,28.94,28.94,0,0,0-5.39,9A31.93,31.93,0,0,0,304,70.43a28.39,28.39,0,0,0-.52,4.48,29.25,29.25,0,0,0,3,14l.24.5-.37-.41h0l.13,0c-.92,2.89-1.64,5.12-2.12,6.63-.24.75-.43,1.32-.55,1.72Z" style="fill:#263238"></path><path d="M323.68,70.33h4.16a3.54,3.54,0,0,1,3.64-3.56,3.38,3.38,0,0,1,3.27,2.15,3.75,3.75,0,0,1-.3,3.38c-.71,1.16-2.26,2.22-5.06,1.73v9.39h4.12v-5.5a8.05,8.05,0,0,0,5.78-7.86c0-6.1-5.47-7.51-7.81-7.51C329.69,62.55,323.6,63,323.68,70.33Z" style="fill:#5EA4FF"></path><rect x="329.37" y="85.36" width="4.18" height="3.91" style="fill:#5EA4FF"></rect></g><g id="freepik--Character--inject-151"><path d="M240.73,428.21l.7,22.78s-22.92,8.36-23.21,12.59l44.23.22.36-35.54Z" style="fill:#263238"></path><path d="M255.11,449.14a1.81,1.81,0,0,1,1.24,2.07,1.74,1.74,0,0,1-2,1.25,1.91,1.91,0,0,1-1.3-2.2,1.82,1.82,0,0,1,2.27-1.06" style="fill:#e0e0e0"></path><path d="M262.45,463.8l-.11-3.58L220,461.34s-2,.85-1.76,2.24Z" style="fill:#455a64"></path><path d="M240.71,450.76c0,.22,1.09.32,2.15,1s1.62,1.61,1.82,1.53-.12-1.34-1.42-2.16S240.67,450.56,240.71,450.76Z" style="fill:#fff"></path><path d="M236.06,452.66c-.05.2.89.58,1.62,1.49s.93,1.89,1.15,1.88.35-1.23-.57-2.35S236.07,452.45,236.06,452.66Z" style="fill:#fff"></path><path d="M233.4,458.19c.2.05.5-1-.05-2.21s-1.55-1.66-1.64-1.48.53.81,1,1.79S233.19,458.17,233.4,458.19Z" style="fill:#fff"></path><path d="M241.13,445.55c.09.2,1.08-.09,2.3,0s2.17.47,2.28.29-.79-1-2.23-1S241,445.38,241.13,445.55Z" style="fill:#fff"></path><path d="M292.68,433.11l2.39,27.47-4.37,22.28a2.84,2.84,0,0,0,2.42,3.35h0a2.81,2.81,0,0,0,2.43-.89c3.94-4.3,18.36-20.18,18.07-22.18-.33-2.31-.6-29.14-.6-29.14Z" style="fill:#263238"></path><path d="M293.12,486.21l20.38-24.92.08,1.16a4.31,4.31,0,0,1-.83,2.82c-1.62,2.16-6.21,8.05-17.12,20.05a2.84,2.84,0,0,1-2.51.89Z" style="fill:#455a64"></path><g style="opacity:0.6000000000000001"><path d="M307.29,452.77A1.72,1.72,0,0,0,307,455a1.65,1.65,0,0,0,2.24.34,1.81,1.81,0,0,0,.33-2.39,1.71,1.71,0,0,0-2.37-.1" style="fill:#fff"></path></g><path d="M298.64,473.78a6.08,6.08,0,0,0-5.76-2.39c0-.07.31-.3.94-.43a4.39,4.39,0,0,1,2.5.27,4.48,4.48,0,0,1,2,1.57C298.63,473.35,298.7,473.75,298.64,473.78Z" style="fill:#fff"></path><path d="M296.91,477.59a23.56,23.56,0,0,0-2.51-1,22.5,22.5,0,0,0-2.71-.17c-.09-.14,1.2-.81,2.85-.42S297.05,477.51,296.91,477.59Z" style="fill:#fff"></path><path d="M302,468.82c-.12.14-1.56-1.16-3.77-1.85s-4.13-.5-4.14-.69a7.74,7.74,0,0,1,7.91,2.54Z" style="fill:#fff"></path><path d="M302,460.41c-.06.17-1.62-.37-3.6-.31s-3.52.63-3.59.46,1.44-1,3.57-1.07A5.51,5.51,0,0,1,302,460.41Z" style="fill:#fff"></path><path d="M301.45,452.33a13.39,13.39,0,0,0-3.74-.43c-2.09.19-3.49,1.3-3.59,1.15s.23-.42.84-.82a6,6,0,0,1,2.69-.93,6.08,6.08,0,0,1,2.82.38C301.15,452,301.49,452.26,301.45,452.33Z" style="fill:#fff"></path><path d="M297.66,450.36a2.35,2.35,0,0,1-.11-1,7.22,7.22,0,0,1,.66-2.78,3.24,3.24,0,0,1,1.27-1.62,1.17,1.17,0,0,1,1.3.17,1.91,1.91,0,0,1,.51,1.22,4,4,0,0,1-3.25,3.91,4.64,4.64,0,0,1-4.7-2.13,1.57,1.57,0,0,1-.16-1.33,1.12,1.12,0,0,1,1.12-.66,4,4,0,0,1,1.88.83,8.18,8.18,0,0,1,2,2,2.6,2.6,0,0,1,.49.93,13.41,13.41,0,0,0-2.74-2.59,3.74,3.74,0,0,0-1.65-.68.6.6,0,0,0-.62.36,1.11,1.11,0,0,0,.16.87,4.15,4.15,0,0,0,4.09,1.8,3.47,3.47,0,0,0,2.81-3.29,1.28,1.28,0,0,0-.32-.86.62.62,0,0,0-.71-.1,3,3,0,0,0-1.11,1.35A10.48,10.48,0,0,0,297.66,450.36Z" style="fill:#fff"></path><path d="M218.08,239.31a98.09,98.09,0,0,0-2.14,28.8c.47,6.12,21.13,175.43,21.13,175.43H265l-7.84-159.13,2.29.49s15.22,67.87,16.46,78.86c1.12,9.88,14.79,87.51,14.79,87.51L317,451l-9.78-100.21-9.48-91.06-3.56-26.51Z" style="fill:#263238"></path><path d="M221.31,267.47c25.7,8.86,59.47,13.31,76.8-3.76l-5.62-129.38H227Z" style="fill:#e0e0e0"></path><path d="M270.76,201.65c.1.11-4.43,4.35-10.11,9.47s-10.35,9.2-10.45,9.09,4.43-4.35,10.11-9.47S270.66,201.54,270.76,201.65Z" style="fill:#263238"></path><path d="M246.41,273.87s1.66-108.65-.53-114-10,112.37-9.29,112.37Z" style="opacity:0.30000000000000004"></path><path d="M219.28,161.77,216,216.56l-2.4,55c7.11,5.43,16.79,8.26,28.34,9.18l4.51-111.2V126.92l-.8-.54-5.52,4.76-1.26.14c-.89-1.82-2.28-1.14-2.28-1.14a1.85,1.85,0,0,0-1.07-.88,2.42,2.42,0,0,0-2.15.88l-1-1.08c-1.65-.47-2.58,1.56-2.58,1.56-14.43,1.6-16.39,10.08-18.64,15.46Z" style="fill:#5EA4FF"></path><path d="M223.51,162.84c-.16.46-1.39,31.31-1.39,31.31s3.38,3.53,2.15,8.14-3.47,15.22-9.56,15.68c-8.54.65-16.53-4.33-16.37-19.67S211,146.08,211,146.08l14.69,10.42Z" style="fill:#5EA4FF"></path><path d="M272.86,124.87s5.1,3.31,6.58,5.73l3.69,0c.65-.07,1.34-.81,2.17-.78.5,0,1.09.77,1.63.82s.84-.78,1.32-.72c1,.12,1.8.81,2.89,1.08,4.12,1,8.71,2.42,10.87,4,5.6,4,7.48,11.12,7.48,11.12s-15.11,16.29-14.06,17.06.48,41.6.48,41.6S301.5,267,300,269s-16.49,11.13-30.61,10.33c0,0-.45-7.89.72-26.47,1.76-27.94,1.57-38,2.06-48,.8-16.22-.14-46.82,0-51.9C272.31,149.25,272.51,125,272.86,124.87Z" style="fill:#5EA4FF"></path><g style="opacity:0.30000000000000004"><path d="M293.73,194.41a21.47,21.47,0,0,0,3.47,26.45v-6.34l-3-18.65Z"></path></g><path d="M309.49,146.06s5.28,39.83,8,43.5,1.84,8.87,1.13,13.92c-.78,5.53-3.54,18.66-14,17.75-5.51-.47-8.78-4.46-10.66-10.41-3.26-10.32,1-22.5,1-25.3s-3.32-23.7-2.93-24.79S309.49,146.06,309.49,146.06Z" style="fill:#5EA4FF"></path><path d="M246.24,153.05a4.61,4.61,0,0,1-.59-.85,14.84,14.84,0,0,0-1.71-2.22,6.35,6.35,0,0,0-1.53-1.16,5.81,5.81,0,0,0-2.12-.56,8.27,8.27,0,0,0-5,1.11l-.58.34.2-.64c.25-.79.5-1.62.74-2.47,1.18-4.22,2.24-8,3-10.95.38-1.32.69-2.42,1-3.31a5.77,5.77,0,0,1,.41-1.2,5.82,5.82,0,0,1-.22,1.25c-.17.8-.44,1.94-.78,3.36-.7,2.82-1.68,6.72-2.91,11-.24.85-.49,1.69-.75,2.48l-.38-.3c3.44-2,7.62-1.23,9.13.83a11.75,11.75,0,0,1,1.63,2.36A4.66,4.66,0,0,1,246.24,153.05Z" style="fill:#263238"></path><g style="opacity:0.30000000000000004"><path d="M275.76,149.13a7.58,7.58,0,0,1,5.21-.23l0,.08a19.68,19.68,0,0,1,1,4.07c-2.88-1.69-6.55-2.39-9.51-.84A7.45,7.45,0,0,1,275.76,149.13Z"></path></g><path d="M272.19,152.41a3.12,3.12,0,0,1,.53-.82,10.12,10.12,0,0,1,1.9-1.93,7.07,7.07,0,0,1,1.65-1,5.48,5.48,0,0,1,2.21-.42,7.32,7.32,0,0,1,4.82,1.85l-.43.22c-.16-1.13-.37-2.32-.58-3.54-.8-4.41-1.53-8.4-2.09-11.43l-.6-3.47a7.46,7.46,0,0,1-.16-1.28,5.7,5.7,0,0,1,.36,1.24c.19.81.45,2,.77,3.44.61,2.91,1.44,6.94,2.24,11.41.21,1.22.41,2.42.57,3.57l.09.69-.51-.47a7,7,0,0,0-4.49-1.79,5.69,5.69,0,0,0-3.66,1.23A20.21,20.21,0,0,0,272.19,152.41Z" style="fill:#263238"></path><g style="opacity:0.30000000000000004"><path d="M226.88,203a11,11,0,0,0-11.95,12.74c.17-.09,1.13-.46,1.13-.46l-.29,4.9a14.06,14.06,0,0,0,9.54-6.16A13.54,13.54,0,0,0,226.88,203Z"></path></g><path d="M214.71,218a12.18,12.18,0,0,0,8.07-4.47,19,19,0,0,0,3.94-8.87c.66-3.66.39-7.71-1.67-10.72s-5.13-4.32-8.49-5.53" style="fill:#5EA4FF"></path><path d="M216.56,188.38a8.08,8.08,0,0,1,1.53.47,18.85,18.85,0,0,1,4,1.88,11,11,0,0,1,4.21,5,15.45,15.45,0,0,1,.87,7.91,20.88,20.88,0,0,1-2.46,7.59,14.64,14.64,0,0,1-4.36,4.84,11.3,11.3,0,0,1-4,1.78,8.79,8.79,0,0,1-1.18.18,1.25,1.25,0,0,1-.42,0s.57-.09,1.55-.36a12.07,12.07,0,0,0,3.85-1.89,14.69,14.69,0,0,0,4.15-4.78,21,21,0,0,0,2.37-7.41,15.36,15.36,0,0,0-.8-7.67,10.88,10.88,0,0,0-4-4.82,21.93,21.93,0,0,0-3.83-2A9.31,9.31,0,0,1,216.56,188.38Z" style="fill:#263238"></path><path d="M218.89,154.8a12.4,12.4,0,0,1,.67,1.87c.4,1.31.93,3,1.56,5.06v.06c0,3,.06,6.55.1,10.45,0,4.84.08,9.22.11,12.53,0,1.53,0,2.81,0,3.8a7,7,0,0,1-.05,1.4,7.52,7.52,0,0,1-.15-1.39c-.06-.9-.13-2.19-.19-3.8-.12-3.21-.22-7.64-.26-12.54,0-3.92,0-7.54,0-10.45v.06l-1.39-5.12A12.32,12.32,0,0,1,218.89,154.8Z" style="fill:#263238"></path><path d="M299.63,156a10,10,0,0,1-.9,1.43l-2.6,3.79,0-.12c0,3.15-.11,7.33-.33,11.9-.26,5-.49,9.45-.67,12.83-.07,1.57-.14,2.87-.18,3.89a9.28,9.28,0,0,1-.12,1.43,6.8,6.8,0,0,1-.09-1.43c0-.92,0-2.26,0-3.9.06-3.29.27-7.83.52-12.85.22-4.56.39-8.73.46-11.87V161l0,0,2.74-3.68A7.87,7.87,0,0,1,299.63,156Z" style="fill:#263238"></path><path d="M306.76,221.22a11.62,11.62,0,0,1-1.69,0,12.91,12.91,0,0,1-4.45-1.2,12.62,12.62,0,0,1-4.93-4.71,27.27,27.27,0,0,1-3.25-16.2,25.25,25.25,0,0,1,1.76-6.59,20,20,0,0,1,2.24-4,12.3,12.3,0,0,1,.78-1c.18-.22.29-.33.3-.31a30.63,30.63,0,0,0-3,5.44,25.77,25.77,0,0,0-1.62,6.52,27.63,27.63,0,0,0,3.18,15.89,12.45,12.45,0,0,0,4.69,4.63,13.64,13.64,0,0,0,4.3,1.33A9.72,9.72,0,0,1,306.76,221.22Z" style="fill:#263238"></path><g style="opacity:0.30000000000000004"><path d="M242.24,148.57a7.56,7.56,0,0,0-5.2-.24l0,.09a18.92,18.92,0,0,0-1,4.07,10,10,0,0,1,9.59-.22A7,7,0,0,0,242.24,148.57Z"></path></g><path d="M256.06,67.18l-1.12,0a21.67,21.67,0,0,0-20.78,20.82c-.41,10.5-.73,20.76-.43,26.38.62,11.62,12.56,12.76,12.56,12.76s0,4,0,7.46a15,15,0,0,0,24.79,1.6l1.43-1.8,1.77-44.53C274.79,77.81,268.19,67.39,256.06,67.18Z" style="fill:#ffbf9d"></path><path d="M246.29,127.3a28.1,28.1,0,0,0,15-5.1s-3.28,8.89-14.93,8.33Z" style="fill:#ff9a6c"></path><path d="M239.51,97a1.66,1.66,0,0,0,1.67,1.61A1.59,1.59,0,0,0,242.83,97a1.65,1.65,0,0,0-1.67-1.61A1.6,1.6,0,0,0,239.51,97Z" style="fill:#263238"></path><path d="M236.84,93.08c.22.21,1.44-.78,3.22-.85s3.14.77,3.32.55-.13-.49-.72-.88a4.57,4.57,0,0,0-2.67-.7,4.37,4.37,0,0,0-2.55.94C236.91,92.59,236.74,93,236.84,93.08Z" style="fill:#263238"></path><path d="M256,96.76a1.65,1.65,0,0,0,1.67,1.61,1.6,1.6,0,0,0,1.65-1.57,1.67,1.67,0,0,0-1.67-1.61A1.59,1.59,0,0,0,256,96.76Z" style="fill:#263238"></path><path d="M254.38,92.77c.22.21,1.44-.78,3.22-.85s3.14.77,3.32.55-.13-.49-.72-.88a4.59,4.59,0,0,0-2.67-.7,4.37,4.37,0,0,0-2.55.94C254.45,92.28,254.27,92.68,254.38,92.77Z" style="fill:#263238"></path><path d="M248.54,106.77a11.53,11.53,0,0,0-2.93-.41c-.46,0-.89-.1-1-.41a2.32,2.32,0,0,1,.25-1.36l1.2-3.53c1.67-5,2.86-9.15,2.66-9.22s-1.72,4-3.39,9c-.4,1.24-.79,2.42-1.15,3.55a2.6,2.6,0,0,0-.16,1.8,1.14,1.14,0,0,0,.77.64,2.81,2.81,0,0,0,.78.07A11.68,11.68,0,0,0,248.54,106.77Z" style="fill:#263238"></path><path d="M254.84,83.88c.19.48,2,.18,4.07.35s3.83.67,4.09.22c.12-.21-.2-.65-.9-1.1a7.14,7.14,0,0,0-6.22-.43C255.12,83.26,254.75,83.66,254.84,83.88Z" style="fill:#263238"></path><path d="M237.47,84.83c.39.39,1.83-.09,3.58-.18s3.24.14,3.57-.29c.14-.22-.11-.61-.78-1a6,6,0,0,0-5.75.38C237.49,84.21,237.3,84.64,237.47,84.83Z" style="fill:#263238"></path><path d="M273.65,98.58c.2-.1,7.9-2.7,8,5.26s-8.57,6.67-8.59,6.45S273.65,98.58,273.65,98.58Z" style="fill:#ffbf9d"></path><path d="M276.07,107s.14.1.38.2a1.4,1.4,0,0,0,1,0c.83-.31,1.53-1.65,1.56-3.09a4.67,4.67,0,0,0-.41-2,1.62,1.62,0,0,0-1.05-1.06.72.72,0,0,0-.82.39c-.1.22,0,.38-.09.4s-.18-.14-.11-.46a.92.92,0,0,1,.3-.51,1.08,1.08,0,0,1,.77-.21,2,2,0,0,1,1.46,1.22,4.71,4.71,0,0,1,.5,2.22c0,1.6-.84,3.11-2,3.46a1.51,1.51,0,0,1-1.27-.2C276.09,107.16,276.05,107,276.07,107Z" style="fill:#ff9a6c"></path><path d="M218.09,77.57a1.89,1.89,0,0,1,.87-1.11,5.82,5.82,0,0,1,3-.52A16.77,16.77,0,0,0,229.2,74,8.46,8.46,0,0,1,227,72.55a5,5,0,0,1-1.5-5,1.12,1.12,0,0,1,.62-.76c.52-.17,1,.33,1.34.73a4.3,4.3,0,0,0,4.07,1.67,7,7,0,0,0,3-.93l.09-.11L235.89,67h0c3-3,5.51-5.09,8.15-6.19,3.87-1.6,10.36-2.31,14.43-1.3s7.74,4.27,8.35,8.41c2.25-1.94,5.67-2,8.45-.88l.07,0c3.09,1.07,4.88,4.31,5.83,7.44.05.17.09.34.14.52a12.18,12.18,0,0,0,4.2,4c.3.17.64.38.68.72a1,1,0,0,1-.52.83,6.11,6.11,0,0,1-2.48,1.07,14.67,14.67,0,0,0,1,2.15c.36.59.78,1.29.48,1.9a1.29,1.29,0,0,1-1.35.61,3.78,3.78,0,0,1-1.44-.63c.35.82.7,1.64,1.06,2.46a7.35,7.35,0,0,1-3.36-.19c-.62,3-1.05,8.4-1.79,10.4-2.11.06-2.62-.16-3.69.2-1.37.48-.82,2.91-2.62,2.24-.92-.34-2.36-3.79-2.67-4.72a45.41,45.41,0,0,1-2.19-19.22,14.49,14.49,0,0,0-4.55-3.2l.14.12c-3.27-1.09-7-2.17-10-.6-2.38,1.21-3.76,3.71-5.53,5.72a16.63,16.63,0,0,1-12.23,6.12c-.41,3.52-.48,9.27-.62,12.55L231,90.9v0a12.81,12.81,0,0,1-.6-1.16l-.07-.11v0a18.94,18.94,0,0,0-.94-1.85l0,0a2,2,0,0,1-3-2.7,4.7,4.7,0,0,1,1-1,3.26,3.26,0,0,1-3.08.84,2.55,2.55,0,0,1-1.82-2.5,2.14,2.14,0,0,1,1.27-1.75,7.28,7.28,0,0,1-4.17-.87C218.63,79.36,217.82,78.6,218.09,77.57Z" style="fill:#263238"></path><path d="M263.17,69.24a10.61,10.61,0,0,1,1.18,1.06,8.31,8.31,0,0,1,1.83,3.85,14.77,14.77,0,0,1,.34,3c0,1.07-.06,2.22-.13,3.43a32.17,32.17,0,0,0,0,3.82,12.9,12.9,0,0,0,.28,2,4.21,4.21,0,0,0,.85,1.94,1.77,1.77,0,0,0,1.65.54A2.63,2.63,0,0,0,270.6,88a6.06,6.06,0,0,0,1.09-3l-.25,0a9.84,9.84,0,0,0,1.45,2.43,3.43,3.43,0,0,0,2.28,1.2,2.14,2.14,0,0,0,1.2-.22,2,2,0,0,0,.81-.81,2,2,0,0,0,.23-1,1.44,1.44,0,0,0-.38-.9l-.13.11a7.71,7.71,0,0,0,2.53,1.85,5.44,5.44,0,0,0,.78.29,1.28,1.28,0,0,0,.28.07,1,1,0,0,0-.27-.11c-.17-.07-.43-.17-.75-.33A7.7,7.7,0,0,1,277,85.72l-.12.11a1.51,1.51,0,0,1,.09,1.73,1.64,1.64,0,0,1-.73.72,2,2,0,0,1-1.08.19,3.2,3.2,0,0,1-2.12-1.15A9.31,9.31,0,0,1,271.68,85l-.17-.37-.08.4a5.86,5.86,0,0,1-1,2.85,2.42,2.42,0,0,1-1.32.76,1.5,1.5,0,0,1-1.4-.45,3.92,3.92,0,0,1-.78-1.82,13.51,13.51,0,0,1-.29-2,31.79,31.79,0,0,1,0-3.79c.06-1.21.13-2.36.1-3.45a14.48,14.48,0,0,0-.37-3,8.24,8.24,0,0,0-1.94-3.87A4.76,4.76,0,0,0,263.17,69.24Z" style="fill:#455a64"></path><path d="M227.25,81s0,0,.1.08l.29.21a4.54,4.54,0,0,0,.5.31,7.57,7.57,0,0,0,.71.37,10.4,10.4,0,0,0,5,.84,13.23,13.23,0,0,0,7-2.68,22.75,22.75,0,0,0,6-7c.84-1.42,1.51-2.88,2.26-4.22a15.41,15.41,0,0,1,2.56-3.58A8,8,0,0,1,255,63.21a5.77,5.77,0,0,1,1.77-.22,6.11,6.11,0,0,1,1.63.29,6.66,6.66,0,0,1,2.44,1.44,6.58,6.58,0,0,1,1.34,1.69,7.88,7.88,0,0,1,.62,1.74,1.09,1.09,0,0,0,0-.12q0-.15-.06-.36a5.76,5.76,0,0,0-.46-1.31,6.64,6.64,0,0,0-1.32-1.75,6.91,6.91,0,0,0-2.49-1.51,6.42,6.42,0,0,0-1.68-.32,5.9,5.9,0,0,0-1.84.22,8.16,8.16,0,0,0-3.45,2.11,15.54,15.54,0,0,0-2.62,3.63c-.75,1.35-1.43,2.8-2.25,4.21a23,23,0,0,1-5.88,7,13.15,13.15,0,0,1-6.87,2.68,10.51,10.51,0,0,1-4.94-.74A17.42,17.42,0,0,1,227.25,81Z" style="fill:#455a64"></path><path d="M226.13,75.88s.14.12.43.29a8.4,8.4,0,0,0,1.24.61,11.45,11.45,0,0,0,2,.63,13.7,13.7,0,0,0,2.51.3,14.3,14.3,0,0,0,2.52-.2,12.52,12.52,0,0,0,2-.54,8.51,8.51,0,0,0,1.26-.56,1.84,1.84,0,0,0,.44-.27s-.67.29-1.77.65a14,14,0,0,1-2,.47,14.7,14.7,0,0,1-2.47.18,15.26,15.26,0,0,1-2.46-.28,12.9,12.9,0,0,1-1.95-.56C226.78,76.2,226.16,75.84,226.13,75.88Z" style="fill:#455a64"></path><path d="M255.05,111c-.08.06-.22-.5-.85-.77a2.2,2.2,0,0,0-1.23,0c-.5.07-1.05.17-1.62.3-2.28.48-4,1.22-4.11,1.08a9.51,9.51,0,0,1,4-1.59,14.06,14.06,0,0,1,1.67-.27,2.38,2.38,0,0,1,1.44.15,1.43,1.43,0,0,1,.66.75C255.09,110.85,255.08,111,255.05,111Z" style="fill:#263238"></path><path d="M192.51,168.71a11.31,11.31,0,0,1,2.16,4.2c.34,1.93,4.66,27,5.79,30.49,1.4,4.36,4.31,13.23,15.89,9.9,8-2.3,8.29-14.51,2.84-21.2S204.66,166.21,204,163.72s-7.15-10-14.64-12-11.24-2-14-5.64-6.13-5.41-7.72-2.68,7.72,10.89,7.72,10.89l13,12.49Z" style="fill:#ffbf9d"></path><path d="M167.46,153.79s-5.76-7-9.52-4.09c0,0,4.88,6.53,6.53,8.3s5.93,3,5.93,3,4.28,4.95,6.58,5.61a5.9,5.9,0,0,0,3.76,0s.06,1.12,3.69,1.64,13.24-.46,13.24-.46l5.94-5s-3-5-7.52-5.1-7.91,3.36-7.91,3.36l-4-.07-2.44-3.16s.47-8.3-4.48-7.38c0,0-.17-2.66-2.28-2.92a2.56,2.56,0,0,0-2.7,1.91s.44-3.27-1.34-3.93a2.27,2.27,0,0,0-3.16,1.06C167.3,147.53,167.46,153.79,167.46,153.79Z" style="fill:#ffbf9d"></path><path d="M181.2,166.63a10.41,10.41,0,0,1-1.66-1.92c-.47-.63-1-1.38-1.58-2.26a4.31,4.31,0,0,1-.69-1.55,13.9,13.9,0,0,1-.26-1.75,44.46,44.46,0,0,1,0-6.14,11,11,0,0,1,.3-2.52,13.92,13.92,0,0,1,.07,2.54c0,1.56,0,3.72.15,6.07a12.5,12.5,0,0,0,.24,1.69,3.84,3.84,0,0,0,.6,1.41c.52.87,1,1.64,1.47,2.29A15.48,15.48,0,0,1,181.2,166.63Z" style="fill:#ff9a6c"></path><path d="M172.34,163.11a3.61,3.61,0,0,1-.73-1.91,22,22,0,0,1-.23-4.89,27.51,27.51,0,0,1,1-6.83c.14,0-.24,3.08-.43,6.85a32,32,0,0,0,.07,4.82C172.09,162.37,172.41,163.06,172.34,163.11Z" style="fill:#ff9a6c"></path><path d="M170.71,161.38a6.38,6.38,0,0,1-1.52-1.43c-.22-.24-.45-.5-.69-.8a4,4,0,0,1-.68-1.07,12.93,12.93,0,0,1-.41-2.78c-.13-2-.12-3.73-.09-5a7.78,7.78,0,0,1,.19-2.07c.16,0,.18,3.17.42,7a15.78,15.78,0,0,0,.34,2.67,4.24,4.24,0,0,0,.58,1l.62.83A10.86,10.86,0,0,1,170.71,161.38Z" style="fill:#ff9a6c"></path><path d="M188.18,161.1a4.31,4.31,0,0,1-1,.07l-2.91,0h-.08l-.05-.06a16.64,16.64,0,0,1-2.59-3.52l0-.05v0a14,14,0,0,0-.32-3.76,5.2,5.2,0,0,0-.88-1.8,2.48,2.48,0,0,0-1.66-1,3.31,3.31,0,0,0-1.29.1l-.31.07,0-.31a3.68,3.68,0,0,0-.49-1.76,2.39,2.39,0,0,0-1.33-1,1.66,1.66,0,0,0-1.5.24,3.24,3.24,0,0,0-1.07,1.11l-.37.65,0-.74a4.76,4.76,0,0,0-.72-2.89,2.37,2.37,0,0,0-2.09-.66,2.5,2.5,0,0,0-1.34.64c-.25.24-.34.41-.37.4a1.06,1.06,0,0,1,.28-.5,2.47,2.47,0,0,1,1.38-.79,2.63,2.63,0,0,1,2.4.66,5,5,0,0,1,.9,3.11l-.41-.09a3.63,3.63,0,0,1,1.2-1.3,2.15,2.15,0,0,1,1.91-.31,2.93,2.93,0,0,1,1.6,1.23,4.18,4.18,0,0,1,.58,2l-.32-.23a4.09,4.09,0,0,1,1.49-.12,2.91,2.91,0,0,1,2,1.22,5.63,5.63,0,0,1,1,2,13.7,13.7,0,0,1,.29,3.9l0-.1a17.88,17.88,0,0,0,2.44,3.51l-.13-.06,2.91.12A4.54,4.54,0,0,1,188.18,161.1Z" style="fill:#ff9a6c"></path><path d="M198.56,157.94a12,12,0,0,0-9.47,2.16s.31-.51,1.07-1.08a9.07,9.07,0,0,1,7-1.59A3.19,3.19,0,0,1,198.56,157.94Z" style="fill:#ff9a6c"></path><path d="M339.2,150.87a2.41,2.41,0,0,0-1.73,0,24.91,24.91,0,0,0-7.31,3.69l1.93,6.65c.75-1.44,4.24-3.32,5.46-4.39a6.44,6.44,0,0,0,2.55-4A2,2,0,0,0,339.2,150.87Z" style="fill:#ff9a6c"></path><path d="M296.44,208a71.91,71.91,0,0,1-.13-14.81c.55-4.43,4.22-17.5,4.47-21.59s.38-6,2.94-7.92,2.55-1,6.13-3.19,4.34-3.7,9.71-4,9.58,11.24,9.58,11.24-.26,2.43-1.28,3.07-2.3.76-5.49.63-6.39.64-6.65,2.56a49.88,49.88,0,0,0,1.41,13.66c1.28,4.73.25,10.22-.64,14.82s-2.74,14.64-10.09,15.45C297.77,218.87,296.44,208,296.44,208Z" style="fill:#ffbf9d"></path><path d="M309.51,165.58s4-.4,4.64-1.18,2.88-8.43,4.13-10.18,2.09-2.09,3.45-1.81c0,0-.18-3.43,2.92-3.92,0,0,1.93-.3,2.24,4.35,0,0-.33-4.43,2.95-5.94a1.65,1.65,0,0,1,2.17.71,1.94,1.94,0,0,1,.18.56c.2,1.06.47,6,.47,6s.36,6.7.45,6.41,4.13-9.31,4.71-10.18a2.55,2.55,0,0,1,2.84-1.48A1.5,1.5,0,0,1,342,150a5.35,5.35,0,0,1-.17,1.43c-.63,2.56-2.34,9.72-3,10.89s-6.84,7.66-9.36,7.87a20.65,20.65,0,0,1-4,0Z" style="fill:#ffbf9d"></path><path d="M317.72,169c-.06-.06.58-.8,1.41-2.13a11.81,11.81,0,0,0,1.19-2.44,6.31,6.31,0,0,0,.34-1.53c0-.57.09-1.16.13-1.76.19-2.4.39-4.57.56-6.14a13.07,13.07,0,0,1,.38-2.54,13,13,0,0,1,0,2.57c-.08,1.58-.22,3.76-.41,6.16-.05.6-.09,1.19-.14,1.76a7.11,7.11,0,0,1-.39,1.65,11.6,11.6,0,0,1-1.34,2.48A7.38,7.38,0,0,1,317.72,169Z" style="fill:#ff9a6c"></path><path d="M326.85,152.39a11.9,11.9,0,0,1,.23,2.52c.08,1.55.15,3.7.2,6.07,0,.59,0,1.17,0,1.73a7.22,7.22,0,0,1-.07,1.67,8.71,8.71,0,0,1-1.16,2.54,7.86,7.86,0,0,1-1.55,2c-.06,0,.49-.84,1.24-2.19a9.55,9.55,0,0,0,1-2.45,7.13,7.13,0,0,0,0-1.55c0-.56,0-1.14,0-1.73-.05-2.38-.06-4.53,0-6.09A12,12,0,0,1,326.85,152.39Z" style="fill:#ff9a6c"></path><path d="M333,159.92c.07,0,.33.44.36,1.27a4.25,4.25,0,0,1-.23,1.44,11.25,11.25,0,0,1-.78,1.55,14.28,14.28,0,0,1-2.63,3.51,25.5,25.5,0,0,1,2.18-3.78,15.22,15.22,0,0,0,.78-1.46,4.4,4.4,0,0,0,.31-1.28C333.06,160.42,332.94,159.94,333,159.92Z" style="fill:#ff9a6c"></path><path d="M305.67,165.54c0-.23,3.83.44,8.19-1.31l.21-.07-.16.15c.82-2.13,1.58-4,2.15-5.4a11.26,11.26,0,0,1,1-2.17,11.11,11.11,0,0,1-.68,2.3c-.49,1.4-1.19,3.33-2,5.46l0,.11-.11,0-.21.07a29.34,29.34,0,0,1-3.19.89,11.14,11.14,0,0,1-2.71.21A8.77,8.77,0,0,1,305.67,165.54Z" style="fill:#ff9a6c"></path></g></svg>
